/* XPM */
static char *_de86169c46747fbcd3ec26c3f655da72de9FDZdztj2g6y4[] = {
/* columns rows colors chars-per-pixel */
"100 100 24 1 ",
"  c #112031",
". c #152534",
"X c #182837",
"o c #1B2C3A",
"O c #1C2D3B",
"+ c #1D2E3C",
"@ c #1F303D",
"# c #20313E",
"$ c #223341",
"% c #233441",
"& c #243542",
"* c #263744",
"= c #273845",
"- c #283A46",
"; c #293C47",
": c #2A3B48",
"> c #2A3D48",
", c #2C3E4A",
"< c #2D404B",
"1 c #2E414C",
"2 c #32454F",
"3 c #324650",
"4 c #344751",
"5 c #344851",
/* pixels */
"oooooooooooooooooooooooooooooooooooooooooooooooooooooooooooooooooooooooooooooooooooooooooooooooooooo",
"oooooooooooooooooooooooooooooooooooooooooooooooooooooooooooooooooooooooooooooooooooooooooooooooooooo",
"ooO++@@@@@@@@@@@@@@@@@@@@@@@@@@@@@@@@@@@@@@@@@@@@@@@@@@@@@@@@@@@@@@@@@@@@@@@@@@@@@@@@@@@@@@@@#%%@oXX",
"oo+#$$$$$$$$$$$$$$$$$$$$$$$$$$$$$$$$$$$$$$$$$$$$$$$$$$$$$$$$$$$$$$$$$$$$$$$$$$$$$$$$$$$$$$$$%=;>%O..",
"oo+$****************************************************************************************-,23=O  ",
"oo@$**&&&*====================================*&&&*===================================**&&&*-<25-O  ",
"oo@$*&%#$&*===================================&$#$&===================================*&$$%*-<25-O  ",
"oo@$*&#+@$*==================================*%@O#%===================================&$++$&-<25-O  ",
"oo@$*&$@#%*==================================*%#+#&===================================&$@@$&-<25-O  ",
"oo@$**&$%&*===================================&%$%&===================================*&$$&*-<25-O  ",
"oo@$*=****====================================**&**====================================****=-<25-O  ",
"oo@$*=======================================================================================-<25-O  ",
"oo@$*=======================================================================================-<25-O  ",
"oo@$*=======================================================================================-<25-O  ",
"oo@$*=======================================================================================-<25-O  ",
"oo@$*=======================================================================================-<25-O  ",
"oo@$*=======================================================================================-<25-O  ",
"oo@$*=======================================================================================-<25-O  ",
"oo@$*=======================================================================================-<25-O  ",
"oo@$*=======================================================================================-<25-O  ",
"oo@$*=======================================================================================-<25-O  ",
"oo@$*=======================================================================================-<25-O  ",
"oo@$*=======================================================================================-<25-O  ",
"oo@$*=======================================================================================-<25-O  ",
"oo@$*=======================================================================================-<25-O  ",
"oo@$*=======================================================================================-<25-O  ",
"oo@$*=======================================================================================-<25-O  ",
"oo@$*=======================================================================================-<25-O  ",
"oo@$*=======================================================================================-<25-O  ",
"oo@$*=======================================================================================-<25-O  ",
"oo@$*=======================================================================================-<25-O  ",
"oo@$*=======================================================================================-<25-O  ",
"oo@$*=======================================================================================-<25-O  ",
"oo@$*=======================================================================================-<25-O  ",
"oo@$*=======================================================================================-<25-O  ",
"oo@$*=======================================================================================-<25-O  ",
"oo@$*=======================================================================================-<25-O  ",
"oo@$*=======================================================================================-<25-O  ",
"oo@$*=======================================================================================-<25-O  ",
"oo@$*=======================================================================================-<25-O  ",
"oo@$*=======================================================================================-<25-O  ",
"oo@$*=======================================================================================-<25-O  ",
"oo@$*=======================================================================================-<25-O  ",
"oo@$*=======================================================================================-<25-O  ",
"oo@$*=======================================================================================-<25-O  ",
"oo@$*==**===============================================================================**==-<25-O  ",
"oo@$**&%%&*===========================================================================*&%%&*-<25-O  ",
"oo@$*&$@#%*===========================================================================*%##$&-<25-O  ",
"oo@$*&#O+$&===========================================================================&$++#&-<25-O  ",
"oo@$*&$##%*===========================================================================*%##%&-<25-O  ",
"oo@$**&%&&*===========================================================================*&&%&*-<25-O  ",
"oo@$*=======================================================================================-<25-O  ",
"oo@$*=======================================================================================-<25-O  ",
"oo@$*=======================================================================================-<25-O  ",
"oo@$*=======================================================================================-<25-O  ",
"oo@$*=======================================================================================-<25-O  ",
"oo@$*=======================================================================================-<25-O  ",
"oo@$*=======================================================================================-<25-O  ",
"oo@$*=======================================================================================-<25-O  ",
"oo@$*=======================================================================================-<25-O  ",
"oo@$*=======================================================================================-<25-O  ",
"oo@$*=======================================================================================-<25-O  ",
"oo@$*=======================================================================================-<25-O  ",
"oo@$*=======================================================================================-<25-O  ",
"oo@$*=======================================================================================-<25-O  ",
"oo@$*=======================================================================================-<25-O  ",
"oo@$*=======================================================================================-<25-O  ",
"oo@$*=======================================================================================-<25-O  ",
"oo@$*=======================================================================================-<25-O  ",
"oo@$*=======================================================================================-<25-O  ",
"oo@$*=======================================================================================-<25-O  ",
"oo@$*=======================================================================================-<25-O  ",
"oo@$*=======================================================================================-<25-O  ",
"oo@$*=======================================================================================-<25-O  ",
"oo@$*=======================================================================================-<25-O  ",
"oo@$*=======================================================================================-<25-O  ",
"oo@$*=======================================================================================-<25-O  ",
"oo@$*=======================================================================================-<25-O  ",
"oo@$*=======================================================================================-<25-O  ",
"oo@$*=======================================================================================-<25-O  ",
"oo@$*=======================================================================================-<25-O  ",
"oo@$*=======================================================================================-<25-O  ",
"oo@$*=======================================================================================-<25-O  ",
"oo@$*=======================================================================================-<25-O  ",
"oo@$*=======================================================================================-<25-O  ",
"oo@$*=======================================================================================-<25-O  ",
"oo@$***&&*====================================**&**====================================*&&*=-<25-O  ",
"oo@$**&$$&*===================================&%$%&===================================*&$$&*-<25-O  ",
"oo@$*&$+@$*==================================*%#+#&===================================&$@@$&-<25-O  ",
"oo@$*&$+@$*==================================*%#+#%===================================&$@+$&-<25-O  ",
"oo@$*&%$$&*===================================&$#%&===================================*&$$%*-<25-O  ",
"oo@$***&&*====================================*&&&*====================================*&&**-<25-O  ",
"oo@%----------------------------------------------------------------------------------------:135-O  ",
"oo#=,<<<<<<<<<<<<<<<<<<<<<<<<<<<<<<<<<<<<<<<<<<<<<<<<<<<<<<<<<<<<<<<<<<<<<<<<<<<<<<<<<<<<<<<1245-O  ",
"oo%;22222222222222222222222222222222222222222222222222222222222222222222222222222222222222223455-O  ",
"oo%>35555555555555555555555555555555555555555555555555555555555555555555555555555555555555555552=o  ",
"oo@%=------------------------------------------------------------------------------------------=@X  ",
"oooOOOOOOOOOOOOOOOOOOOOOOOOOOOOOOOOOOOOOOOOOOOOOOOOOOOOOOOOOOOOOOOOOOOOOOOOOOOOOOOOOOOOOOOOOOOOoX.  ",
"ooX.                                                                                                ",
"ooX.                                                                                                "
};
