/* XPM */
static char *_33ae915220d44e1b7c38073d3c45b79Y18NSjq8pAarzl2U[] = {
/* columns rows colors chars-per-pixel */
"100 100 12 1 ",
"  c #0F161D",
". c #11181F",
"X c #121A21",
"o c #141C22",
"O c #161E24",
"+ c #172025",
"@ c #182025",
"# c #1A2228",
"$ c #1B2429",
"% c #1D262A",
"& c #1F282C",
"* c #20292D",
/* pixels */
"oooooooooooooooooooooooooooooooooooooooooooooooooooooooooooooooooooooooooooooooooooooooooooooooooooo",
"oooooooooooooooooooooooooooooooooooooooooooooooooooooooooooooooooooooooooooooooooooooooooooooooooooo",
"ooooOOOOOOOOOOOOOOOOOOOOOOOOOOOOOOOOOOOOOOOOOOOOOOOOOOOOOOOOOOOOOOOOOOOOOOOOOOOOOOOOOOOOOOOOOO+@OoXX",
"oooO@@@@@@@@@@@@@@@@@@@@@@@@@@@@@@@@@@@@@@@@@@@@@@@@@@@@@@@@@@@@@@@@@@@@@@@@@@@@@@@@@@@@@@@@@@$%@o..",
"ooO@@@@#@###@@@@##@@@@@@@@@###@@@###@@@@###@@@@@@@@@#@##@###@@@@##@@@@@@@@@###@@@@##@@@@@@@@#%&*#o  ",
"ooO@@@@@@###@@@@##@@@@@@@@@@##@@@###@@@@##@@@@@@@@@@@@##@###@@@@##@@@@@@@@@@##@@@@##@@@@@@@@#%**#o  ",
"ooO@@@@OO@##@@@@####@@@@@@@@###@@@##@@@@###@@@@@O@@@@###@@##@@@@####@@@@@@@@###@@@##@@@@OO@@#%**#o  ",
"ooO@@@OoO@###@@@###@@@##@@@@###@@@###@@@###@@@@OoO@@@@##@@###@@@###@@@##@@@@###@@@###@@OooO@#%**#o  ",
"ooO@@@OOO@@@@###@@@@@@####@@@###@@@@@@@#######@OoO@@##@@@@####@@@@@@@@####@@@###@@@@###@OO@##%**#o  ",
"ooO@@@@@@@@@####@@@@@@###@@@@###@@@@@@########@@O@@@###@@@####@@@@@@@@###@@@@###@@##@@#@@@@@#%**#o  ",
"ooO@@@@@@@@@@@######@#####@@@@####@#@@@@@@@@####@@@@##@@@@@#@@@@####@#####@@@@######@@@@@@@@#%**#o  ",
"ooO@@@@@@@@@@@######@@####@@@@######@@@@@@@@###@@@####@@@@##@@@@####@@####@@@@######@@@@@@@@#%**#o  ",
"ooO@####@@@#@@@@@@@#######@@@@@###@@@@@@@@####@@@###@@@@@@@@@###@@@#######@@@@@##@@@##@@@@#@%%**#o  ",
"ooO@####@@@#@@@@@@########@@@@@@##@@#@##@@##@@@@##@@@@@@@@@@@@##@@########@@@@@@@@@@##@@@@###%**#o  ",
"ooO@##@@@@####@@@@@@##@#@@@@@@@@@@@@####@###@@@@@@@@####@#@@@###@@@@##@#@@@@@@@@@@@@###@#####%**#o  ",
"ooO@#@@@@@#####@@@@@@@@@@@@@@@@@@@@@####@@##@@@@@##@######@@@###@@@@@@@@@@@@@@@@@@@@#########%**#o  ",
"ooO@@@@@@@@@@#@@@@######@@@@@@#####@@@##@@@@##@@@@@#######@@@@########@@@###########@@@@@@@@#%**#o  ",
"ooO@@@@@@@@@##@@@@####@@@@@@@@#####@@@@#@@@@##@@@@##@@####@@@@######@@@@############@@@@@@@@#%**#o  ",
"ooO@@@@@@@@#####@@@#@@@@@@##@#####@@@@##@@#@##@@####@@@@#@@@####@#@@@@@@@@####@@##@#@@##@@@@#%**#o  ",
"ooO@#@@@@@@#####@@@@@@@@##########@@@@##@@####@@##@@@@@@@@@@@###@@@@@@@@@@###@@@@@@@@@###@@@#%**#o  ",
"ooO@########@@##@@@@@@@#@########@@@@@##@###@@@@#@@@##@@@@##@@@@@@@@@@@@@@####@@@@@@#########%**#o  ",
"ooO@########@@##@@@@@@##@@######@@@@@@##@###@#@@@@@@##@@@###@@@@@@@@@@@@@@####@@@@@@#@#######%**#o  ",
"ooO@@@##@#@@@@##@@@@####@@@@@@##@@@@@@@@@@######@@@@###@@@###@@@####@#@@@@@##@@@##@@@@@@@@###%**#o  ",
"ooO@@@@@@@@@@@###@@@####@@@@@@#@@@@@@@@@@#######@@@@####@@###@@@######@@@@@@#@@@#@@@@@@@@@@@#%**#o  ",
"ooO@@@@@@@@@@@@########@@@@@@@@@##@@@@@@###@@@##@@@@###@@@###@@@@@@@@@@@####@@@###@@@@@@@@@@#%**#o  ",
"ooO@##@@@@@@@@#########@@@@@@@@@##@@@@@@####@@@@@@@@###@@@####@@@@@@#@#####@@@@###@@@@#@##@@#%**#o  ",
"ooO@######@#@@@@@@####@@##@@@@@####@##@@##@@@@@@@@@@##@@@@##@@@@@@########@@@@####@@#########%**#o  ",
"ooO@########@@@@@@@@###@#@@@@@@###########@@@@@@@@@###@@@@##@@@@@@########@@@@####@@#########%**#o  ",
"ooO@@@@###@@@@@@@@####@@##@@@@#########@@@@@#@@@####@@@@@@@@@#######@###@@@@@########@@@@@@##%**#o  ",
"ooO@@@@@##@@#@##@@####@@##@@@@########@@@@@@#@@@####@@@@@@@@@####@##@###@@@@@@#######@@@@@@@#%**#o  ",
"ooO@@@@@@@@@####@@@#@@@@##@@@#####@@@@@@@@####@@@@###@####@@@@##@@@@@@##@@@@@@@@@@##@@@@@@@@#%**#o  ",
"ooO@@@@@@@@@####@@##@@@@##@@@@##@#@@@@@@@#####@@@@@#######@@@###@@@@@@###@@@@@@@@@#@@@@@@@@@#%**#o  ",
"ooO@@@##@@@@##@@####@@@@@@@@###@@@######@@@@@@###@@@@@@@@@###@@@@@@@@@###@@@@@@@@@##@@@@@@@@#%**#o  ",
"ooO@@@@#@@@@##@@####@@@#@@@@###@@@@@####@#@@@@####@@@@@@@@##@@@@@@@@@@###@@@@@@@@@##@@@@##@@#%**#o  ",
"ooO@@@##@@#@##@@##@@@@##@@@@##@@@@@@@@#@####@@##@@@@#@##@###@@@@####@###@@@@@@##@###@@@@#####%**#o  ",
"ooO@@@##@@####@@@#@@@@##@@@###@@@@@@@@@@####@@##@@@@####@###@@@@####@@##@@@@#########@@@#####%**#o  ",
"ooO@@@##@###@@@@@@@@########@@@@@@@@@@@@@@@#####@@@@@@###@@@####@@@#####@#@@@@####@@####@@@##%**#o  ",
"ooO@@@##@###@#@@@@@@@@######@@@@@@@@@@@@@@@#######@#@@###@@@####@@########@@@@###@@@####@@@@#%**#o  ",
"ooO@@@@@@@#######@@@@@@@@@###@##@@#@####@@@@##@@####@@@@##@@@@##@@@@##@#####@@@###@@@@##@@@@#%**#o  ",
"ooO@@@@@@########@@@@@@@@@@#####@@######@@@@@#@@####@@@@##@@@@@#@@@@@@@@####@@@@##@@@@@@@@@@#%**#o  ",
"ooO@@@@@###@@@####@@@@@@###@@@##@########@@@@@@@####@@@@##@@@@########@@@@@#@@@@##@@@@@@@@@@#%**#o  ",
"ooO@@@@@####@@@@##@@@@@@##@@@@##@#######@@@@@@@@####@@@@##@@@@###@####@@@@@##@@@##@@@@@@@@###%**#o  ",
"ooO@@@@@##@@@@@@###@#######@@@@@@@####@@@@@@@@###@##@@#@#@@@####@@@@@@@@@@####@@@@@@#@#######%**#o  ",
"ooO@#@@@##@@@@@@##@@#######@@@@@@###@@@@@@@@@###@@@@@@##@@@@@###@@@@@@@@@@####@@@@@@#########%**#o  ",
"ooO@####@@@@@@@@#####@@@@@@@##@@@@####@@##@@@@##@@@@####@@##@@@@@@@@@@@@@@@###@@@@@@@@###@@@%%**#o  ",
"ooO@####@@@@@@@@######@@@@@@##@@@@####@@##@@@@##@@@@####@###@@@@##@@@@@@@@####@@#@##@@#@@@@@#%**#o  ",
"ooO@@@@@@@####@@#@##@@@@@@####@@@@@@#@@@###@@@@###@@@@@@@@###@@@####@@@@############@@@@@@@@#%**#o  ",
"ooO@@@@O@@####@@@@@@@@@@@@@###@@@@@@##@@####@@@###@@@@@@@@###@@@#####@@@#######@####@@@@OO@@#%**#o  ",
"ooO@#@@ooO@@#####@@@@@#####@@@@@@@##@@@@##@@@@#######@@@@@#####@@@@@@@@@@@@@@@@@@@@@###@ooO@#%**#o  ",
"ooO@##@OO@@@######@@@@####@@@#@@@@@#@@@@##@@@#####@###@@@@####@@@@@@#@##@@@@@@@@@@@@###@OO@@#%**#o  ",
"ooO@##@@@@@@@@######@@@#@@@@####@@####@@##@@@@##@@@@####@@@#@@@@@@########@@@@@#@@@@##@@@@@@#%**#o  ",
"ooO@####@@@@@@@#####@@@#@@@@####@@####@@##@@@@##@@@@####@@@#@@@@@@#######@@@@@@##@@@##@@@@@@#%**#o  ",
"ooO@@@@#@@@@@@@@@@@@###@@@#@@@##@@@@###@#@@@@@@#@@###@@@@@@@@@######@#####@@@@######@@@@#@@@#%**#o  ",
"ooO@@@@@@@@#@@@@@@@@###@@@##@@@@@@####@@##@@@@@#@@##@@@@@@@@@@###@##@#####@@@@######@@@@#@@@#%**#o  ",
"ooO@@@@@@@####@@@@@@##@@####@@@@#######@@@@@@@@@@###@@@@@@@@####@@@@@@####@@@###@@##@@####@@#%**#o  ",
"ooO@@@@@@@######@@@###@@####@@@@#######@@@@@@@@@@###@@@@##@@@###@@@@@@####@@@@##@@@@###@@####%**#o  ",
"ooO@####@@#@@@@@@@####@@@@##@@@@#@@@####@@@@@@#@###@@@####@@@@@@####@@@#@@@@##@@@@####@@@@@@#%**#o  ",
"ooO@####@@##@@@@@@####@@@###@@@@@@@@####@@@@@@#####@@@@###@@@@@@####@@@@@@@@###@@@####@@@#@@#%**#o  ",
"ooO@#@#######@@@@@@@#@@@@@##@@@@@@@@@@##@@########@@@@#####@######@@@@@@@@@@##@@@@@#@@@@#####%**#o  ",
"ooO@@@@@#####@@@@@@@##@@@@####@@@@@@@@@#@#########@@@@####@@#####@@@@@@@@@####@@@@##@@@@#####%**#o  ",
"ooO@@@@@##@@#######@@@@@@@@@###@@@@@@@@@#########@@@@@#######@@@@@@@@@@@@###@@@@@@@@@###@@@##%**#o  ",
"ooO@@@@@##@@######@@@@@@@@@@####@@@#@@@@@@##@###@@@@@@########@@@@@@#@@@####@@@@@@@@@@##@@@##%**#o  ",
"ooO@@@####@@@@#@###@@@#@######@@@@####@@@@@@@@##@@@@@@@@#@##@@@@@@####@@@@######@#@@@###@@@@#%**#o  ",
"ooO@@@@###@@@@@@###@@@########@@@@######@@@@@@##@@@@@@@@@@@@@@@@######@@@@########@@@###@@@@#%**#o  ",
"ooO@@@@@@@@@@#@@@@@@@@@###@@@@@@#####@@@#######@@@######@@@@@@####@@@######@@@#######@@@@@##%%**#o  ",
"ooO@@@@@@@@@##@@@@@@@@@@##@@@@@@####@@@@########@@@@####@#@@@@##@#@@@#####@@@@####@###@@@@##%%**#o  ",
"ooO@@@@@@@@#######@@@@@@###@##@###@@@@@@@@####@@@@@@@@#@####@@##@@@@@@#####@@@@@@@@@####@@@##%**#o  ",
"ooO@#@@@@@@########@@@@@###@####@@@@@@@@@@@###@@@@@@@@@@####@@##@@@@@######@@@@@@@@@####@@@##%**#o  ",
"ooO@########@@####@@@@########@@@@@@@@@@@@####@@@@@@@@@@@@@#####@@##@@@@@@@@##@@@@###@@@@@@@#%**#o  ",
"ooO@########@@####@@@@########@@@@@@@@@@@@####@@@@@@@@@@@@@#####@@@#@@@@@@@@##@@@@##@@@@@@@@#%**#o  ",
"ooO@@@##@#@@@@###@@@@#####@#@@@@#@####@@@@@##@@@@@#@####@@@@##@@@@####@@@@####@@@###@@@@@@@@#%**#o  ",
"ooO@@@@@@@@@@@###@@@####@@@@@@@@######@@@@@#@@@@@@######@@@@@#@@@@####@@@@@###@@@###@@@@#@@@#%**#o  ",
"ooO@@@@@@@@@@@@#@@@#@@@@@@######@@@@@@@@####@@@@@########@@@@@@@@@@@#######@@@@@@@@@##@@##@@#%**#o  ",
"ooO@##@@@@@@@@##@@@##@@@@@#@####@@@@##@#####@@@#@#######@@@@@@@@@@##@@####@@@#@@@@@@#@@@##@@#%**#o  ",
"ooO@######@#@@@@@@####@@@@@@@@@@@@########@@@@##@@####@@@@@@@@######@@@@@@@@####@@####@@###@$%**#o  ",
"ooO@########@@@@@@####@@@@@@@@@@@@@#####@#@@@@##@###@@@@@@@@@#######@@@@@@@@####@@####@@###@#%**#o  ",
"ooO@@@@###@@@@@@@@@###@@@@@@@@@@####@@##@@@@@###@@####@@##@@@@###@@@##@@@@#@@@##@###@@@@@@@@#%**#o  ",
"ooO@@@@@##@@#@##@@####@@@@@@@@#@####@###@@@@#@##@@####@@##@@@@##@@@@##@@@@##@@@@@@####@@@@@@#%**#o  ",
"ooO@@@@@@@@@############@@@@####@@@@@@###@@@@@@@@@@@#@@@###@@@@#@@@@###@####@@@@@#######@@@@#%**#o  ",
"ooO@@@@@@@@@###########@@@######@@@@@@###@@@@@@@@@@@##@@####@@@#@@@@########@@@@@########@@@#%**#o  ",
"ooO@@@##@@@@##@@@@@@@@@@@@@@@@@@###@@@########@@@@@@##@@####@@@@@@@@##@@####@@@@@@@@@@@@@#@@#%**#o  ",
"ooO@@@@#@@@@###@@@@@@@@@#@##@@@@###@@@#@####@#@@@@@@###@####@@@@@@@@###@####@@@@@@@@@@@@##@@#%**#o  ",
"ooO@@@##@@@@##@@@@@@@@########@@##@@@@@@@@@@####@@@@##@@##@#@@##@@@@##@@##@#@@####@@@@@#####$%**#o  ",
"ooO@@@##@@####@@#@@@@@#######@@@###@@@@@@@@@###@@@####@@@@@@@@##@@####@@@@@@@@###@@@@@@######%**#o  ",
"ooO@@@#@@###@@@@##@@@@####@@####@@@@##@@@@####@@@###@@@@@@@@####@###@@@@@@@@######@@@@##@@@@#%**#o  ",
"ooO@@@######@@@###@@@@#####@####@@@@#@@@@@##@@@@####@@@@@@@@#@######@@@@@@@@#@####@@@@##@@@@#%**#o  ",
"ooO@@@@@@@#####@###@@@@###@@@@@@@@####@@@###@@@@@@########@@@@@@@@########@@@@@@##@@@###@@@@#%**#o  ",
"ooO@@@@O@@#####@###@@@####@@@@@@@@####@@@@##@@@@O@#######@@@@@@@@@#######@@@@@@@##@@@@#@@+@@#%**#o  ",
"ooO@@@OoO@@@##@@@###@@@@##@@@###@@@###@@####@@@OoO@@@@##@@@###@@@@######@@@###@@@###@@@@OOO@#%**#o  ",
"ooO@@@OoO@@@@###@###@@@@@@@@####@@@@##@@###@@@@OoO@#@@##@@@@##@@@@####@@@@@@##@@@###@@@OOOO@#%**#o  ",
"ooO@@@@OO@@@@@@#@@##@@@@@@@@@@##@@@@###@##@@@@@@O@@@####@@@@###@@@@#@@@@@@@@###@@@#@@@@@@@@@#%**#o  ",
"ooO@@@@@@@@@@@@@@@###@@@@@@@@@##@@@@###@##@@@@@@@@@@#@@#@@@@###@@@@@@@@@@@@@###@@@###@@@#@###%**#o  ",
"ooO@####################################%###########%################%%%####################$%**#o  ",
"ooO@%%%%%%%%%%%%%%%%%%%%%%%%%%%%%%%%%%%%%%%%%%%%%%%%%%%%%%%%%%%%%%%%%%%%%%%%%%%%%%%%%%%%%%%%%&**#o  ",
"oo+$&*******************************************************************************************#o  ",
"oo@%*******************************************************************************************&@o  ",
"ooO@###########################################################################################@OX  ",
"ooooooooooooooooooooooooooooooooooooooooooooooooooooooooooooooooooooooooooooooooooooooooooooooooX.  ",
"ooX.                                                                                                ",
"ooX.                                                                                                "
};
