/* XPM */
static char *ab5b63a79f184a9a914057e159b240cd8DKGfMbJZhZkCUgk[] = {
/* columns rows colors chars-per-pixel */
"100 100 65 1 ",
"  c #0F161D",
". c #1F1417",
"X c #10171E",
"o c #1E161A",
"O c #11181F",
"+ c #1A1A1E",
"@ c #2E0B0D",
"# c #350000",
"$ c #3C0000",
"% c #360A0C",
"& c #3C0B0D",
"* c #2C0E10",
"= c #300F12",
"- c #390E10",
"; c #251215",
": c #2B1013",
"> c #211619",
", c #301012",
"< c #151D23",
"1 c #191E23",
"2 c #172025",
"3 c #1A2227",
"4 c #1B2429",
"5 c #1F282C",
"6 c #20292D",
"7 c #430000",
"8 c #4B0000",
"9 c #450708",
"0 c #4E0708",
"q c #450A0C",
"w c #4A090A",
"e c #530000",
"r c #5B0000",
"t c #530708",
"y c #630000",
"u c #6B0000",
"i c #730000",
"p c #7B0000",
"a c #830000",
"s c #8A0000",
"d c #8E0000",
"f c #920000",
"g c #940202",
"h c #9A0000",
"j c #9C0000",
"k c #A10000",
"l c #A60000",
"z c #A90000",
"x c #AC0000",
"c c #B10000",
"v c #B60000",
"b c #BB0000",
"n c #BC0000",
"m c #C30000",
"M c #C60000",
"N c #CA0000",
"B c #CD0001",
"V c #D30000",
"C c #D70000",
"Z c #D90000",
"A c #DC0000",
"S c #E30000",
"D c #E50000",
"F c #E80000",
"G c #EC0000",
/* pixels */
"<<<<<<<<<<<<<<<<<<<<<<<<<<<<<<<<<<<<<<<<<<<<<<<<<<<<<<<<<<<<<<<<<<<<<<<<<<<<<<<<<<<<<<<<<<<<<<<<<<<<",
"<<<<11<<<<<<<1<111<<<<<<<<<11111<<<<<<<1<1<<<<<<<<<11111<<<<<<11<<1111<<<111111<<<<<<<<1<<111111<<<<",
"<<<1111111111111222211111111222211111111212211111111221111111111111111111111222211111111111122231<<<",
"<<12333322222222333322222222333222222222333322222222323222222222222222222222333322222222222224442< X",
"<<12223322222223222333332233332222222222233333332233332222222223333222222233332232222222333234663<  ",
"<<12222222222233223333332233332222222233223333222233222222222233333222222233232222232232222334663<  ",
"<<12221112223333222233332333222222333333222233211123332222323333333322322333222222333332112234663<  ",
"<<122211123333332222332223332222223333332222221<<123332222333333333322333333222222333321<<1234663<  ",
"<112322223222222333333222222333223332333333322211233222233222222222222333333223323333332222334663<  ",
"<<12332233232222333333222222333233332233333322222223222233332222222222333333222323333333222234663<  ",
"<112333333333322232232222233332233332222223222222222111233333322333323333322223333332222222234663<  ",
"<11222333333333322222222223333222333222222pfvMBCZCCVVVBvp3333332333333333322223333332222322234663<  ",
"<112222233333333222222222333222222333322pZACCCVCCCCCCCBnv>323333333333333222333322333322332234663<  ",
"<11222223332333333222222333323222233332BGFACCCCCCCCCCCMnnk323333223333333222323322323322332334663<  ",
"<<122233332222223333332233333333222233gGGACCCCCCCCCCCVnbnv122232222232332222222222223332333334663<  ",
"<<122223332222223333332223333333222233mFCCCCCCCCCCCCCMnbnny22222222222333222222222223333333334663<  ",
"<<122223222333222233333333322233332222SZCCCCCCCCCCCCBnbbbbz22222322222333333332233332222332234663<  ",
"<112223322333322223333223332223323322hACCCCCCCCCCCCVmblpjbv22222332222333322332223332222333234663<  ",
"<112333322223332223322223333222322222alzxcxxzjhgfffpye77ynb>3222333322332222333322332322332234663<  ",
"<112333322223333223322223333222233222eyuyuurrrreee888887rnbw3322333322332222333322333322332234663<  ",
"<1233222333322222222233322223333333328r88eeeerrreee88778enn93333222333332233323322223333333234663<  ",
"<1233322333322232222223322223332332228pe8ererrreee8887788nnr3333223333333233222222223333332234663<  ",
"<1232222333222332222333322333322222228peeerrryyrree887788bna2233222233333333222233333332222234663<  ",
"<<23222233322233332333332223332222332eaeeeyuryyypdre88788bbk2222222233223333222233333332222234663<  ",
"<<12222223333333333333333222222222333rpeeeixuyyufnye88878nbx2222333333223333223333222333222245663<  ",
"<<12222233333333333333333222222232332rr8eriNiyuuajye88778bbc2222333333223333222333222233222245663<  ",
"<<12223333332322223333222222333333332yi8erygaaaauyee88878cbc2222222232223322223332223333223345663<  ",
"<<12223323332222223333223222333333332ye8ererpbcpyyee88878zbv3222222222223322223332223333223345663<  ",
"<<12223322333322223333223322223322222y888ereryyrrre887888jbb3333222233333222333333333222333334663<  ",
"<<12223322333322223333223323223332222y878eeerrreere887788abbuereyo1233333222323333332222333334663<  ",
"<<1223332222333222233222333322233322208778eeerre8eee88878ybne777$$$8e2332222222222333222232234663<  ",
"<112233322223332223333223333222333222288778e8eee8eee77777cvvu87777777r333222222222333222222234663<  ",
"<1232222322233333333223322223333332222r7778e8ee888877ykzvcjie77$777778222222222233222222222245663<  ",
"<123222232223333333222332222333333222yuyerrree87ugjnMBVmclue7777777777222222222233332222222245663<  ",
"<123223233223233332222332222332233321riCmmnvcbmmBVCCCCVbhsu77777777777223322223333333322223345663<  ",
"<<2322333322223333222233323333223322u7ucVCCCCCCCCCCCCVmjz8777yy7$77777123333222333333332222345663<  ",
"<<12333333332223322233333333222222227$uNBBBBBBBBBBNMvclbi777exle777778r23322223333323333333334663<  ",
"<<123333333322223322223333332222322277pAnvbnnnnccbhxbnBn7778kbba777778y23322223333323333333334663<  ",
"<<123322222222232222222222333233322277pDVMMmvbnvcnnBVCCm777lbnnl877777r23322233333222232332234663<  ",
"<<123222222222232222222223333333332287aDCCVVVBBBVVCVVCCxe8rBNnbvr77777e23322333333222222222234663<  ",
"<<1222223322223333222222332222333333r+aDCCNmMMMNBCCNBCVjeeBCCmbba77777r22233222233222222222334663<  ",
"<<122233332222333333222233222233333,a+sDCCCNnbnnBCCCVVNaerCCCNbbf77777y22333322233222322223334663<  ",
"<<12333333322ey33333332233332223223ff.gFCCCCVmNVCBzlgsgueyCCCCMnxe7777y22233332222223333333334663<  ",
"<11233333333e8882333333233332233222mc.xFCCCCCCCCCme777uierBCCCVmve7777r22233332222223333333334663<  ",
"<1133322222878887t22333322233333223bn0NDCCCCCCCCCnriyiyfeuSCCCCMba7777e22222333223322233332234663<  ",
"<<133322222777888882333322233332222DmuDDCCCCCCCCCnrppirkeyDFCCMnbf7777e22233333233332233232235663<  ",
"<113222122;788888888o2322232332223aSVkFSVCCCCCCCCneeu7em8rFGZmbbbj7777e33333333333332222222235663<  ",
"<112221<122e7888888889222223333222BDVlDZVCCCCCCCCme777eVgeSGZBnbbxe777833333333333332221111235663<  ",
"<<1222111232o87888888822ry22222222CSmgFAVCCCCCCCCVzklxcVM8uDCCBnbve777722222222233332221111234663<  ",
"<<122211233322e88888882eyee1222222ZVnjFZCCCCCCCCCCCVVCCVMhrSZCCBnbp777722222222223332222222234663<  ",
"<<1222223333222oe8888ea8778e222sadZMbbDCCCCCCCCCCCCCCVMnbbsADCCVmbh777823322223322332322222234663<  ",
"<<122223333332223e878yy777788rnSAdnmvmFZVCCCCCCCCCCCCMnbbbbCFACNnbz877823333222322333322332234663<  ",
"<<12223322222222222%ee878dy778hSFvabvvACVCCCCCCBBVVCCVMnbbbdDDCmnbcr77823322223322223333333334663<  ",
"<1122233222222332223r888epju78pVAmzxsNMMVCCCCCVnnnnmmmnnbbbiACCVBmvy77823322223322223333332234663<  ",
"<1122333223333332222y8$77euhs8pBCBxkjvcbMVVCCCCVmnbbbbbbvxzmCCVVVVbr77723322233333333332222234663<  ",
"<11233332233333322222e77777usyfBMCxzfkkjbnmNVCCCVNnbbbbcpiudCCNnnncr77723322333333333332222234663<  ",
"<<12333323322222222223&8777eresnnMlbddkgbbbnmMMMmnbnnbbj8777NCVnnnvr77723333223333222333222244663<  ",
"<<1233333333222222223333o22+7u8gbnbbayyuaasjzxxxxxxxxxzs8777mZCBnbvp77723333222333222233222245663<  ",
"<112333333333322223333332222+xsucbnnir877778887$$$7788888778cVMkgsdr77723322223332223333223345663<  ",
"<1123322333333222233333323222&kyabbbir87777777777777777787$87pe8777777723322223332223333233345663<  ",
"<112222233223333333322332222333%efklfg877777777777777777877$7ure877777833222333333333222333334663<  ",
"<1122222333233333333233322222233e:22>jicBVdre888888888ei877778ee87788e233222323333332222333334663<  ",
"<<1222333322223333222233332222222r22+CzMCCVVBBBBMbbnbbbbcxcccgye877232332222222222333222222234663<  ",
"<<1223333322222222222233333222222e:2=ACCCCCCCCCCCVVVVVBnnnbnbdre877%22333222222222333222222234663<  ",
"<<12222322233322222222233322222222e2qACCCCCCCCCCCCCCCVnbnnbbzuee877822222223332222222223332234663<  ",
"<112223322333322222222233322222233e%+DCCCCCCCCCCCCCCCNbbbbvpre887777r2222223332222222223332234663<  ",
"<112333322223332333322223333332333381DZCCCCCVCCCCCCCCVbbbbzee777777782222222333233332222333345663<  ",
"<11233332222333333332223333333333330rDSCCCCCcMnmNNCCCBzkjfueer7888eyeyupp223333333332223333345663<  ",
"<12332223333222233222233333333332223rnFCCVNNnbccq2CCCmayreeeeryyyuuuuuiui+33333333222233222234663<  ",
"<123332233332223332232333333332322239yACCVbbnnbbo2VZCMu88eee7uryuuyrrriuu>33333333223233322234663<  ",
"<123222233322233322233333322222222221usBVCNbbbbb+2nAVbr8788e7yeuuuirryuuu022333332223333332234663<  ",
"<<23222233322233322233333322222222222craMVMbbbbb22rBnzeeyyyyyyruuuuiruuuur22223332223333332234663<  ",
"<<12222223333333333322223323333322222hnyyxvbbbbb22&vlueuuuuurryuyruuuuurur22222222223332332234663<  ",
"<<12222233333333333322222222333322223zZvpeudxcvv32tpepiuuuuuuuyuyeruuurrue22222222223332332244663<  ",
"<<12223333332322333322322222223322333-Mbbbpy8euue8eavcpuuuyyyyuuyeyuuuerur22223322333322333245663<  ",
"<<122233233322222233223322222333233333ipgkzxzldu332kvxiyyrryyyuuyriuuurrur22222322333322332245663<  ",
"<<122233223333222222333322332222333322ree8877777223r77irrryrryiuyyiuyuyruy22223323332222222234663<  ",
"<<122233223333222222333322332222333322eee7777777223ye7yyyyrryyiuyiuyeruuir22223333332322322234663<  ",
"<<122333222233323322332222333322232222iee7777777222ae7rrrrryrriiuuurrruuir22233333333333332234663<  ",
"<1122333222233323332322222333333222222pee7777777222pe8ryuuuuuyuuyuuuyuuuur22333323333333332234663<  ",
"<1123333333322223333333222333333333333%ee8777777222ye88uuuuuuuiiuuuuiiiiir33222222222222233244663<  ",
"<<1233332333222233333333223333333333331uee77777$222ry8788erre0ttttq;12222333222222222222333334663<  ",
"<11232332233232222323333222222332322322p8e77777$222yu87777777222222233222233332233222233333334663<  ",
"<1122232223333222222333222222222222222ure877777$222uu8877777722o;23213222233332233222333333344663<  ",
"<112222322223333223333222222222222222iye8877777$322are88$777707rut;8r2222222333333222233322234663<  ",
"<1122222222233332233332222232232222oeee88777777$77rree887777$eeeryurq2222222333333222233322234663<  ",
"<<122232333333322333222ye88777$$#####8877$$7$$$##$eee8777777$#######$7777778r33233322333332234663<  ",
"<<123222233333322333222r7$$$$$$$#$###############$7777$777$$#######$$$$$$$$7823233322232222234663<  ",
"<<1222112233332222223322222232223332;***%98887$$$$$$$$##$$$$$$$78@*123333333332222223321111335663<  ",
"<11222112233332222233332322232323333332222223321<122333333333322222233333333332222233331111235663<  ",
"<112322123223222223333223332333323222222222233211222223323223222222222332322322222333322212234663<  ",
"<112333222222222223333223332333322222222222333222222222222222222222222232222222222333322332235663<  ",
"<<22333333333333444433333333444433333333444433333333334333333333333343343333333334443333333344663<  ",
"<124445544444444455544444444554444444444554444444444445444444444444444444444444445554444444445663<  ",
"<124666666666666666666666666666666666666666666666666666666666666666666666666666666666666666666663<  ",
"<134666666666666666666666666666666666666666666666666666666666666666666666666666666666666666666652<  ",
"<<12333333333333333333333333333333333333333333333333333333333333334333333333333333333333333333321<  ",
"<<<<<<<<<<<<<<<<<<<<<<<<<<<<<<<<<<<<<<<<<<<<<<<<<<<<<<<<<<<<<<<<<<<<<<<<<<<<<<<<<<<<<<<<<<<<<<<<<O  ",
"<<<X                                                                                                ",
"<<<X                                                                                                "
};
