/* XPM */
static char *_dc2a9928cfb4bc7dc85942ffcfe63efVm77o3Tde3Wo7Jd6[] = {
/* columns rows colors chars-per-pixel */
"100 100 76 1 ",
"  c #350000",
". c #3C0000",
"X c #370E12",
"o c #380F12",
"O c #2F171C",
"+ c #321317",
"@ c #3A1216",
"# c #31171C",
"$ c #3C1419",
"% c #36191F",
"& c #3F181D",
"* c #2D1D24",
"= c #331B21",
"- c #112031",
"; c #182837",
": c #1C2D3B",
"> c #1F303E",
", c #27242D",
"< c #29242C",
"1 c #242731",
"2 c #242B35",
"3 c #242D38",
"4 c #23323E",
"5 c #430000",
"6 c #4B0000",
"7 c #450709",
"8 c #4D0708",
"9 c #460A0C",
"0 c #4B0B0D",
"q c #530000",
"w c #5B0000",
"e c #530709",
"r c #540B0E",
"t c #5C090B",
"y c #440E11",
"u c #4B0F13",
"i c #41151A",
"p c #49151A",
"a c #630000",
"s c #6B0000",
"d c #730000",
"f c #7C0000",
"g c #243542",
"h c #273845",
"j c #2A3C48",
"k c #2D404B",
"l c #32454F",
"z c #334751",
"x c #354952",
"c c #830000",
"v c #8C0000",
"b c #910000",
"n c #940000",
"m c #950304",
"M c #9A0000",
"N c #9C0000",
"B c #A00000",
"V c #A60000",
"C c #A90000",
"Z c #AC0000",
"A c #B10000",
"S c #B70000",
"D c #BB0000",
"F c #BC0000",
"G c #C20000",
"H c #C70000",
"J c #CA0000",
"K c #CD0101",
"L c #D00000",
"P c #D60000",
"I c #D90000",
"U c #DD0000",
"Y c #E20000",
"T c #E70000",
"R c #EB0000",
"E c #EC0000",
/* pixels */
"::::::::::::::::::::::::::::::::::::::::::::::::::::::::::::::::::::::::::::::::::::::::::::::::::::",
":::::::::::::::::::::::::::::::::::::::::::::::::::::::::::::::::::::::::::::::::::::::::::::>>4::;;",
":::4gggggggggggggggggggggggggggggggggggggggggggggggggggggggggggggggggggggggggggggggggggggggggghhg:;;",
"::4ggggggggggggggggggggggggggggggggggggggggggggggggggggggggggggggggggggggggggggggggggggggggghjkkh:--",
"::gghhhhhhhhhhhhhhhhhhhhhhhhhhhhhhhhhhhhhhhhhhhhhhhhhhhhhhhhhhhhhhhhhhhhhhhhhhhhhhhhhhhhhhhhhklzh:--",
"::gghgggghhhhhhhhhhhhhhhhhhhhhhhhhhhhhhhhhhhhhgggghhhhhhhhhhhhhhhhhhhhhhhhhhhhhhhhhhhhhgggghhklzh:--",
"::gghg4>gghhhhhhhhhhhhhhhhhhhhhhhhhhhhhhhhhhhgg>>gghhhhhhhhhhhhhhhhhhhhhhhhhhhhhhhhhhhgg>>gghklzh:--",
"::gghg>:4ghhhhhhhhhhhhhhhhhhhhhhhhhhhhhhhhhhhgg::4ghhhhhhhhhhhhhhhhhhhhhhhhhhhhhhhhhhhgg::gghklzh:--",
"::gghgg4gghhhhhhhhhhhhhhhhhhhhhhhhhhhhhhhhhhhhgg4gghhhhhhhhhhhhhhhhhhhhhhhhhhhhhhhhhhhhgggghhklzh:--",
"::gghhggghhhhhhhhhhhhhhhhhhhhhhhhhhhhhhhhhhhhhgggghhhhhhhhhhhhhhhhhhhhhhhhhhhhhhhhhhhhhgggghhklzh:--",
"::gghhhhhhhhhhhhhhhhhhhhhhhhhhhhhhhhhhhhhhhhhhhhhg44444hhhhhhhhhhhhhhhhhhhhhhhhhhhhhhhhhhhhhhklzh:--",
"::gghhhhhhhhhhhhhhhhhhhhhhhhhhhhhhhhhhhhhhfbSHKPIPPLLLKSfhhhhhhhhhhhhhhhhhhhhhhhhhhhhhhhhhhhhklzh:--",
"::gghhhhhhhhhhhhhhhhhhhhhhhhhhhhhhhhhhhhfIUPPPPPPPPPPPKFS<hhhhhhhhhhhhhhhhhhhhhhhhhhhhhhhhhhhklzh:--",
"::gghhhhhhhhhhhhhhhhhhhhhhhhhhhhhhhhhhhKERUPPPPPPPPPPPHFDBhhhhhhhhhhhhhhhhhhhhhhhhhhhhhhhhhhhklzh:--",
"::gghhhhhhhhhhhhhhhhhhhhhhhhhhhhhhhhhhmRRIPPPPPPPPPPPLDDDS4hhhhhhhhhhhhhhhhhhhhhhhhhhhhhhhhhhklzh:--",
"::gghhhhhhhhhhhhhhhhhhhhhhhhhhhhhhhhhhGTPPPPPPPPPPPPPHDDDDahhhhhhhhhhhhhhhhhhhhhhhhhhhhhhhhhhklzh:--",
"::gghhhhhhhhhhhhhhhhhhhhhhhhhhhhhhhhhhYIPPPPPPPPPPPPKFDDDDChhhhhhhhhhhhhhhhhhhhhhhhhhhhhhhhhhklzh:--",
"::gghhhhhhhhhhhhhhhhhhhhhhhhhhhhhhhhhmUPPPPPPPPPPPPLGDVfNDShhhhhhhhhhhhhhhhhhhhhhhhhhhhhhhhhhklzh:--",
"::gghhhhhhhhhhhhhhhhhhhhhhhhhhhhhhhhgcVCZAZZCNMnbnbcaq55aFD<hhhhhhhhhhhhhhhhhhhhhhhhhhhhhhhhhklzh:--",
"::gghhhhhhhhhhhhhhhhhhhhhhhhhhhhhhhhhqasasdwwwwqqq666665wFDuhhhhhhhhhhhhhhhhhhhhhhhhhhhhhhhhhklzh:--",
"::gghhhhhhhhhhhhhhhhhhhhhhhhhhhhhhhhh6w66qqqqwwwqqq66556qDD9hhhhhhhhhhhhhhhhhhhhhhhhhhhhhhhhhklzh:--",
"::gghhhhhhhhhhhhhhhhhhhhhhhhhhhhhhhhh6fq6qwqwwwqqq6665566DDwhhhhhhhhhhhhhhhhhhhhhhhhhhhhhhhhhklzh:--",
"::gghhhhhhhhhhhhhhhhhhhhhhhhhhhhhhhhh6fqqqwwwaawwqq665565DFchhhhhhhhhhhhhhhhhhhhhhhhhhhhhhhhhklzh:--",
"::gghhhhhhhhhhhhhhhhhhhhhhhhhhhhhhhhhqcqqqaswaaafvwq66566DDBhhhhhhhhhhhhhhhhhhhhhhhhhhhhhhhhhklzh:--",
"::gghhhhhhhhhhhhhhhhhhhhhhhhhhhhhhhhhwfqqqdZsaasbFaq66656FDZhhhhhhhhhhhhhhhhhhhhhhhhhhhhhhhhhklzh:--",
"::gghhhhhhhhhhhhhhhhhhhhhhhhhhhhhhhhhww6qwdJdasscNaq66556DDAhhhhhhhhhhhhhhhhhhhhhhhhhhhhhhhhhklzh:--",
"::gghhhhhhhhhhhhhhhhhhhhhhhhhhhhhhhhhad6qwanccccsaqq66656ADAhhhhhhhhhhhhhhhhhhhhhhhhhhhhhhhhhklzh:--",
"::gghhhhhhhhhhhhhhhhhhhhhhhhhhhhhhhhhaq6qwqwfDAfaaqq66656CDShhhhhhhhhhhhhhhhhhhhhhhhhhhhhhhhhklzh:--",
"::gghhhhhhhhhhhhhhhhhhhhhhhhhhhhhhhhha666qwqwaawwwq665666NDDhhhhhhhhhhhhhhhhhhhhhhhhhhhhhhhhhklzh:--",
"::gghhhhhhhhhhhhhhhhhhhhhhhhhhhhhhhhha656qqqwwwqqwq665566cDDs6wqa,4hhhhhhhhhhhhhhhhhhhhhhhhhhklzh:--",
"::gghhhhhhhhhhhhhhhhhhhhhhhhhhhhhhhhh06556qqqwwq6qqq66656aDFq555...6qhhhhhhhhhhhhhhhhhhhhhhhhklzh:--",
"::gghhhhhhhhhhhhhhhhhhhhhhhhhhhhhhhhhh66556q6qqq6qqq55555ASSs65.55555whhhhhhhhhhhhhhhhhhhhhhhklzh:--",
"::gghhhhhhhhhhhhhhhhhhhhhhhhhhhhhhhhhhq5556q6qq666655aBCSANdq55.555556hhhhhhhhhhhhhhhhhhhhhhhklzh:--",
"::gghhhhhhhhhhhhhhhhhhhhhhhhhhhhhhhhhasaqwwwqq65dnNFHKLGAVsq5555555555ghhhhhhhhhhhhhhhhhhhhhhklzh:--",
"::gghhhhhhhhhhhhhhhhhhhhhhhhhhhhhhhh2qdPGGFSADGGKLPPPPLDMvs55555555555ghhhhhhhhhhhhhhhhhhhhhhklzh:--",
"::gghhhhhhhhhhhhhhhhhhhhhhhhhhhhhhhhs.sALPPPPPPPPPPPPLGNC6555aa5.555554hhhhhhhhhhhhhhhhhhhhhhklzh:--",
"::gghhhhhhhhhhhhhhhhhhhhhhhhhhhhhhhh6.sJKKKKKKKKKKJHSAVDd555qZVq555555whhhhhhhhhhhhhhhhhhhhhhklzh:--",
"::gghhhhhhhhhhhhhhhhhhhhhhhhhhhhhhhh55fUFSDFFFFAADMZDFKF5556BDDc555556ahhhhhhhhhhhhhhhhhhhhhhklzh:--",
"::gghhhhhhhhhhhhhhhhhhhhhhhhhhhhhhhh55fTLHHGSDFSAFFKLPPG555VDFFV655555whhhhhhhhhhhhhhhhhhhhhhklzh:--",
"::gghhhhhhhhhhhhhhhhhhhhhhhhhhhhhhhh67cTPPLLLKKKLLPLLPPZq6wKJFDSw55555qhhhhhhhhhhhhhhhhhhhhhhklzh:--",
"::gghhhhhhhhhhhhhhhhhhhhhhhhhhhhhhhht1cTPPJGJHJJKPPJKPLNqqKPPGDDc55555whhhhhhhhhhhhhhhhhhhhhhklzh:--",
"::gghhhhhhhhhhhhhhhhhhhhhhhhhhhhhhh=c2vTPPPJFDFFKPPPLLJcqwPPPJFDb55555ahhhhhhhhhhhhhhhhhhhhhhklzh:--",
"::gghhhhhhhhhqahhhhhhhhhhhhhhhhhhhhbb,nRPPPPPHJLPKCVnvnsqaPPPPHFZq5555ahhhhhhhhhhhhhhhhhhhhhhklzh:--",
"::gghhhhhhhh66664hhhhhhhhhhhhhhhhhhGA,ZRPPPPPPPPPGq555sdqwKPPPLGSq5555whhhhhhhhhhhhhhhhhhhhhhklzh:--",
"::gghhhhhhh656665ehhhhhhhhhhhhhhhhhDF8JTPPPPPPPPPFwdadabqsYPPPPHDc5555qhhhhhhhhhhhhhhhhhhhhhhklzh:--",
"::gghhgghhh55566666hhhhhhhhhhhhhhhgTGsTTPPPPPPPPPFwffdwBqaTRPPHFDb5555qhhhhhhhhhhhhhhhhhgghhhklzh:--",
"::gghggggg*566666666,hhhhhhhhhhhhhcULBRYPPPPPPPPPFqqs5qG6wREIGDDDN5555qhhhhhhhhhhhhhhhhgggghhklzh:--",
"::gghg>:gghq5666666660hhhhhhhhhhhhJTLVTIPPPPPPPPPGq555qLnqYEILFDDZq5556hhhhhhhhhhhhhhhgg>>gghklzh:--",
"::gghg>:4ghh,656666666hhwahhhhhhhhPYGnRUPPPPPPPPPLCBVZALH6sTPPKFDSq5555hhhhhhhhhhhhhhhgg::gghklzh:--",
"::gghgg4gghhhhq6666666hqaqq4hhhhhgILFNRIPPPPPPPPPPPLLPPLHMwYIPPKFDf5555hhhhhhhhhhhhhhhhgggghhklzh:--",
"::gghhggghhhhhh,66666qc6556qhhhvcvIHDDTPPPPPPPPPPPPPPLHFDDvUTPPLGDM5556hhhhhhhhhhhhhhhhhgghhhklzh:--",
"::gghhhhhhhhhhhhhq656aa555566wFYUvFGSGRIPPPPPPPPPPPPPHFDDDDPRUPJFDC6556hhhhhhhhhhhhhhhhhhhhhhklzh:--",
"::gghhhhhhhhhhhhhhg@qq656va556MYRScDSSUPPPPPPPPKKLLPPLHFDDDvTTPGFDAw556hhhhhhhhhhhhhhhhhhhhhhklzh:--",
"::gghhhhhhhhhhhhhhhhw666qfNs56fLUGCZvJHHLPPPPPLFFFFGGGFFDDDdUPPLKGSa556hhhhhhhhhhhhhhhhhhhhhhklzh:--",
"::gghhhhhhhhhhhhhhhha6.55qsMv6fKPKZNNSSDHLPPPPPLGFFDDDDDDACGPPLLLLDw555hhhhhhhhhhhhhhhhhhhhhhklzh:--",
"::gghhhhhhhhhhhhhhhhhq55555svabKHPZCbVVNDFHJLPPPLJFDDDDAfdsvPPJFFFAw555hhhhhhhhhhhhhhhhhhhhhhklzh:--",
"::gghhhhhhhhhhhhhhhhhhy6555qwqvFFHVDvvBnDDDFGHHHGFDFFDDN6555JPLFFFSw555hhhhhhhhhhhhhhhhhhhhhhklzh:--",
"::gghhhhhhhhhhhhhhhhhhhh,gh15s6nDFDDcaasccvNCZZZZZZZZZCv6555GIPKFDSf555hhhhhhhhhhhhhhhhhhhhhhklzh:--",
"::gghhhhhhhhhhhhhhhhhhhhhhhh2ZvsADFFdw655556665...5566666556ALHBnvvw555hhhhhhhhhhhhhhhhhhhhhhklzh:--",
"::gghhhhhhhhhhhhhhhhhhhhhhhhhiBacDDDdw65555555555555555565.65fq65555555hhhhhhhhhhhhhhhhhhhhhhklzh:--",
"::gghhhhhhhhhhhhhhhhhhhhhhhhhhhXqbBVbn655555555555555555655.5swq6555556hhhhhhhhhhhhhhhhhhhhhhklzh:--",
"::gghhhhhhhhhhhhhhhhhhhhhhhhhhhhq*hh<NdAKLvwq666666666qd655556qq65556ehhhhhhhhhhhhhhhhhhhhhhhklzh:--",
"::gghhhhhhhhhhhhhhhhhhhhhhhhhhhhhwhh2PCHPPLLKKKKHDDFDDDDAZAAAnaq655hhhhhhhhhhhhhhhhhhhhhhhhhhklzh:--",
"::gghhhhhhhhhhhhhhhhhhhhhhhhhhhhhq=h%UPPPPPPPPPPPLLLLLKFFFDFDvwq655@hhhhhhhhhhhhhhhhhhhhhhhhhklzh:--",
"::gghhhhhhhhhhhhhhhhhhhhhhhhhhhhhhqhuUPPPPPPPPPPPPPPPLFDFFDDCsqq6556hhhhhhhhhhhhhhhhhhhhhhhhhklzh:--",
"::gghhhhhhhhhhhhhhhhhhhhhhhhhhhhhhq@2TPPPPPPPPPPPPPPPJDDDDSfwq665555whhhhhhhhhhhhhhhhhhhhhhhhklzh:--",
"::gghhhhhhhhhhhhhhhhhhhhhhhhhhhhhhh64TIPPPPPLPPPPPPPPLFDDDCqq55555555ghhhhhhhhhhhhhhhhhhhhhhhklzh:--",
"::gghhhhhhhhhhhhhhhhhhhhhhhhhhhhhhh8wTYPPPPPAHFGJKIPPLCBNbsqqw5666qaqasffhhhhhhhhhhhhhhhhhhhhklzh:--",
"::gghhhhhhhhhhhhhhhhhhhhhhhhhhhhhhhhwFRPPPJJFDAAphPPPGcawqqqqwaaasssssssd2hhhhhhhhhhhhhhhhhhhklzh:--",
"::gghhhhhhhhhhhhhhhhhhhhhhhhhhhhhhhh9aUPPLDDFFDD<hLIPHs66qqq5swassawwwdss,hhhhhhhhhhhhhhhhhhhklzh:--",
"::gghhhhhhhhhhhhhhhhhhhhhhhhhhhhhhhh3svKPPJFDDDD2hFULFw6566q5aqsssdwwasssehhhhhhhhhhhhhhhhhhhklzh:--",
"::gghhhhhhhhhhhhhhhhhhhhhhhhhhhhhhhhhAwcHLJFDDDDhhtKFCqqaaaaaawssssdwsssswhhhhhhhhhhhhhhhhhhhklzh:--",
"::gghhhhhhhhhhhhhhhhhhhhhhhhhhhhhhhhhMFaaZSDDDDDhhiSVsqssssswwasawssssswswhhhhhhhhhhhhhhhhhhhklzh:--",
"::gghhhhhhhhhhhhhhhhhhhhhhhhhhhhhhhhhCISfqsvZASShhefqfdsssssssasaqwssswwsqhhhhhhhhhhhhhhhhhhhklzh:--",
"::gghhhhhhhhhhhhhhhhhhhhhhhhhhhhhhhhh&HDDDfa6qss656cSAfsssaaaassaqasssqwsqhhhhhhhhhhhhhhhhhhhklzh:--",
"::gghhhhhhhhhhhhhhhhhhhhhhhhhhhhhhhhhhdfnBCZCVvshhhBSZdaawwaaassawdssswwswhhhhhhhhhhhhhhhhhhhklzh:--",
"::gghhhhhhhhhhhhhhhhhhhhhhhhhhhhhhhhhhwqq6655555hhhq55dwwwawwadsaadsasawswhhhhhhhhhhhhhhhhhhhklzh:--",
"::gghhhhhhhhhhhhhhhhhhhhhhhhhhhhhhhhhhqqq5555555hhhaq5aaaawwaadsadsaqwssdwhhhhhhhhhhhhhhhhhhhklzh:--",
"::gghhhhhhhhhhhhhhhhhhhhhhhhhhhhhhhhhhdqq5555555hhhcq5wwwwwawwddssswwwssswhhhhhhhhhhhhhhhhhhhklzh:--",
"::gghhhhhhhhhhhhhhhhhhhhhhhhhhhhhhhhhhfqq5555555hhhfq6wasssssassasssasssswhhhhhhhhhhhhhhhhhhhklzh:--",
"::gghhhhhhhhhhhhhhhhhhhhhhhhhhhhhhhhhh$qq6555555hhhaq66sssssssddssssdddddwhhhhhhhhhhhhhhhhhhhklzh:--",
"::gghhhhhhhhhhhhhhhhhhhhhhhhhhhhhhhhhh4sqq55555.hhhwa65666qwqrrrrru=2gghhhhhhhhhhhhhhhhhhhhhhklzh:--",
"::gghhhhhhhhhhhhhhhhhhhhhhhhhhhhhhhhhhhf6q55555.hhhas65555555hhhhhhhhhhhhhhhhhhhhhhhhhhhhhhhhklzh:--",
"::gghhhhhhhhhhhhhhhhhhhhhhhhhhhhhhhhhhswq655555.hhhss66555555hh,*hhg2hhhhhhhhhhhhhhhhhhhhhhhhklzh:--",
"::gghhhhhhhhhhhhhhhhhhhhhhhhhhhhhhhhhsaq6655555.hhhcwq66.555585wae*6thhhhhhhhhhhhhhhhhhhhhhhhklzh:--",
"::gghhhhhhhhhhhhhhhhhhhhhhhhhhhhhhg,qqq66555555.55wwqq665555.qqqwaswyhhhhhhhhhhhhhhhhhhhhhhhhklzh:--",
"::gghhgghhhhhhhhhhhhhhhaq65555..     6655......  .6qqq555555        .5555556whhhhhhhhhhhgghhhklzh:--",
"::gghggggghhhhhhhhhhhhhw5......  .               .5555.555..         ......56ghhhhhhhhhgggghhklzh:--",
"::gghg>:gghhhhhhhhhhhhhhhhhhhhhhhhh4*##Oo76665..... ..   ......56+#4hhhhhhhhhhhhhhhhhhgg:>gghklzh:--",
"::gghg>:gghhhhhhhhhhhhhhhhhhhhhhhhhhhhhhhhhhhgg>:gghhhhhhhhhhhhhhhhhhhhhhhhhhhhhhhhhhhgg>>gghklzh:--",
"::gghggggghhhhhhhhhhhhhhhhhhhhhhhhhhhhhhhhhhhhgggghhhhhhhhhhhhhhhhhhhhhhhhhhhhhhhhhhhhhgggghhklzh:--",
"::gghhgghhhhhhhhhhhhhhhhhhhhhhhhhhhhhhhhhhhhhhhgghhhhhhhhhhhhhhhhhhhhhhhhhhhhhhhhhhhhhhhgghhhklzh:--",
"::ghhhhhhhhhhhhhhhhhhhhhhhhhhhhhhhhhhhhhhhhhhhhhhhhhhhhhhhhhhhhhhhhhhhhhhhhhhhhhhhhhhhhhhhhhjkzzh:--",
":>gjkkkkkkkkkkkkkkkkkkkkkkkkkkkkkkkkkkkkkkkkkkkkkkkkkkkkkkkkkkkkkkkkkkkkkkkkkkkkkkkkkkkkkkkkklzzh:--",
":>hkllllllllllllllllllllllllllllllllllllllllllllllllllllllllllllllllllllllllllllllllllllllllzzxzh:--",
":4hkzzzzzzzzzzzzzzzzzzzzzzzzzzzzzzzzzzzzzzzzzzzzzzzzzzzzzzzzzzzzzzzzzzzzzzzzzzzzzzzzzzzzzzzzzzzlh;--",
"::ghhhhhhhhhhhhhhhhhhhhhhhhhhhhhhhhhhhhhhhhhhhhhhhhhhhhhhhhhhhhhhhhhhhhhhhhhhhhhhhhhhhhhhhhhhhhh>;--",
":::::::::::::::::::::::::::::::::::::::::::::::::::::::::::::::::::::::::::::::::::::::::::::::;;;--",
":;;-------------------------------------------------------------------------------------------------",
":;;-------------------------------------------------------------------------------------------------"
};
