/* XPM */
static char *_03bdcb5ce7c4b34e22d9ee9f65d235bhHZnvY7sXa5tS4fm[] = {
/* columns rows colors chars-per-pixel */
"100 100 37 1 ",
"  c #1D1C1B",
". c #1E1D1C",
"X c #201F1E",
"o c #21201F",
"O c #232221",
"+ c #242322",
"@ c #262524",
"# c #2A2928",
"$ c #2F2E2D",
"% c #343433",
"& c #3C3B3A",
"* c #3E3E3D",
"= c #464544",
"- c #484847",
"; c #4D4C4B",
": c #4D4D4C",
"> c #525251",
", c #545352",
"< c #555453",
"1 c #575655",
"2 c #585756",
"3 c #595857",
"4 c #5A5A59",
"5 c #5C5B5A",
"6 c #5D5C5B",
"7 c #5D5D5C",
"8 c #605F5E",
"9 c #61605F",
"0 c #616160",
"q c #666665",
"w c #696867",
"e c #696968",
"r c #6C6C6B",
"t c #6F6F6E",
"y c #706F6E",
"u c #71706F",
"i c #717170",
/* pixels */
"=,>:;;;;;;;;;;;;;;;;;;;;;;;;;;;;;;;;;;;;;;;;;;;;;;;;;;;;;;;;;;;;;;;;;;;;;;;;;;;;;;;;;;;;;;;;;;;;:>,=",
",e113333333333333333333333333333333333333333333333333333333333333333333333333333333333333333333311e,",
">18iutttttttttttttttttttyiiutrrrrrrrrrrrrrrrrrrrrrrrrrrrrrrrrrrrrrrrrrrtuiiytttttttttttttttttttui81>",
":1it944444444444444444446tit&$$$$$$$$$$$$$$$$$$$$$$$$$$$$$$$$$$$$$$$$$$&tit644444444444444444449ti1:",
";3u9<<<<<<<<<<<<<<<<<<<,4tir$ ........................................ $rit4,<<<<<<<<<<<<<<<<<<<9u3;",
";3t4<<<<<<<<<<<<<<<<<<<2wiir$..XooooooooooooooooooooooooooooooooooooX..$riiw2<<<<<<<<<<<<<<<<<<<4t3;",
";3t4<<<<<<<<<<<<<<<<<<2wiii4@.$14444444444444444444444444444444444441$.@4iiiw2<<<<<<<<<<<<<<<<<<4t3;",
";3t4<<<<<<<<<<<<<<<<<2wiii5#.$0iiiiiiiiiiiiiiiiiiiiiiiiiiiiiiiiiiiiii0$.#5iiiw2<<<<<<<<<<<<<<<<<4t3;",
";3t4<<<<<<<<<<<<<<<<2wiii5# $0iiiiiiiiiiiiiiiiiiiiiiiiiiiiiiiiiiiiiiii0$ #5iiiw2<<<<<<<<<<<<<<<<4t3;",
";3t4<<<<<<<<<<<<<<<2wiii5# $0iiiiiiiiiiiiiiiiiie-**-eiiiiiiiiiiiiiiiiii0$ #5iiiw2<<<<<<<<<<<<<<<4t3;",
";3t4<<<<<<<<<<<<<<2wiii5# $0iiiiiiiiiiiiiiiiiir*....*riiiiiiiiiiiiiiiiii0$ #5iiiw2<<<<<<<<<<<<<<4t3;",
";3t4<<<<<<<<<<<<<2wiii5# $0iiiiiiiiiiiiiiiiiii0+....+0iiiiiiiiiiiiiiiiiii0$ #5iiiw2<<<<<<<<<<<<<4t3;",
";3t4<<<<<<<<<<<<2wiii5# $0iiiiiiiiiiiiiiiiiiii0+....+0iiiiiiiiiiiiiiiiiiii0$ #5iiiw2<<<<<<<<<<<<4t3;",
";3t4<<<<<<<<<<<2wiii5# $0iiiiiiiiiiiiiiiiiiiii0+....+0iiiiiiiiiiiiiiiiiiiii0$ #5iiiw2<<<<<<<<<<<4t3;",
";3t4<<<<<<<<<<2wiii5# $0iiiiiiiiiiiiiiiiiiiiii0+....+0iiiiiiiiiiiiiiiiiiiiii0$ #5iiiw2<<<<<<<<<<4t3;",
";3t4<<<<<<<<<2wiii5# $0iiiiiiiiiiiiiiiiiiiiiii0+....+0iiiiiiiiiiiiiiiiiiiiiii0$ #5iiiw2<<<<<<<<<4t3;",
";3t4<<<<<<<<2wiii5# $0iiiiiiiiiiiiiiiiiiiiiiii0+....+0iiiiiiiiiiiiiiiiiiiiiiii0$ #5iiiw2<<<<<<<<4t3;",
";3t4<<<<<<<2wiii5# $0iiiiiiiiiiiiiiiiiiiiiiiii0+....+0iiiiiiiiiiiiiiiiiiiiiiiii0$ #5iiiw2<<<<<<<4t3;",
";3t4<<<<<<2wiii5# $0iiiiiiiiiiiiiiiiiiiiiiiiii0+....+0iiiiiiiiiiiiiiiiiiiiiiiiii0$ #5iiiw2<<<<<<4t3;",
";3t4<<<<<2wiii5# $0iiiiiiiiiiiiiiiiiiiiiiiiiii0+....+0iiiiiiiiiiiiiiiiiiiiiiiiiii0$ #5iiiw2<<<<<4t3;",
";3t4<<<<2wiii5# $0iiiiiiiiiiiiiiiiiiiiiiiiiiii0+....+0iiiiiiiiiiiiiiiiiiiiiiiiiiii0$ #5iiiw2<<<<4t3;",
";3t4<<<2wiii5# $0iiiiiiiiiiiiiiiiiiiiiiiiiiiii0+....+0iiiiiiiiiiiiiiiiiiiiiiiiiiiii0$ #5iiiw2<<<4t3;",
";3t4<<2wiii5# $0iiiiiiiiiiiiiiiiiiiiiiiiiiiiii0+....+0iiiiiiiiiiiiiiiiiiiiiiiiiiiiii0$ #5iiiw2<<4t3;",
";3t4,2wiii5# $0iiiiiiiiiiiiiiiiiiiiiiiiiiiiiii0+....+0iiiiiiiiiiiiiiiiiiiiiiiiiiiiiii0$ #5iiiw2,4t3;",
";3y64wiii5# $0iiiiiiiiiiiiiiiiiiiiiiiiiiiiiiii0+....+0iiiiiiiiiiiiiiiiiiiiiiiiiiiiiiii0$ #5iiiw46y3;",
";3ittiii5# $0iiiiiiiiiiiiiiiiiiiiiiiiiiiiiiiii0+....+0iiiiiiiiiiiiiiiiiiiiiiiiiiiiiiiii0$ #5iiitti3;",
";3iiiii5# $0iiiiiiiiiiiiiiiiiiiiiiiiiiiiiiiiii0+....+0iiiiiiiiiiiiiiiiiiiiiiiiiiiiiiiiii0$ #5iiiii3;",
";3utrr4# $0iiiiiiiiiiiiiiiiiiiiiiiiiiiiiiiiiii0+....+0iiiiiiiiiiiiiiiiiiiiiiiiiiiiiiiiiii0$ #4rrtu3;",
";3t&$$@.$0iiiiiiiiiiiiiiiiiiiiiiiiiiiiiiiiiiii0+....+0iiiiiiiiiiiiiiiiiiiiiiiiiiiiiiiiiiii0$.@$$&t3;",
";3r$ ..$0iiiiiiiiiiiiiiiiiiiiiiiiiiiiiiiiiiiii0+....+0iiiiiiiiiiiiiiiiiiiiiiiiiiiiiiiiiiiii0$.. $r3;",
";3r$..$0iiiiiiiiiiiiiiiiiiiiiiiiiiiiiiiiiiiiii0+....+0iiiiiiiiiiiiiiiiiiiiiiiiiiiiiiiiiiiiii0$..$r3;",
";3r$.X1iiiiiiiiiiiiiiiiiiiiiiiiiiiiiiiiiiiiiii0+....+0iiiiiiiiiiiiiiiiiiiiiiiiiiiiiiiiiiiiiii1X.$r3;",
";3r$.o4iiiiiiiiiiiiiiiiiiiiiiiiiiiiiiiiiiiiiii0+....+0iiiiiiiiiiiiiiiiiiiiiiiiiiiiiiiiiiiiiii4o.$r3;",
";3r$.o4iiiiiiiiiiiiiiiiiiiiiiiiiiiiiiiiiiiiiii0+....+0iiiiiiiiiiiiiiiiiiiiiiiiiiiiiiiiiiiiiii4o.$r3;",
";3r$.o4iiiiiiiiiiiiiiiiiiiiiiiiiiiiiiiiiiiiiii0+....+0iiiiiiiiiiiiiiiiiiiiiiiiiiiiiiiiiiiiiii4o.$r3;",
";3r$.o4iiiiiiiiiiiiiiiiiiiiiiiiiiiiiiiiiiiiiii0+....+0iiiiiiiiiiiiiiiiiiiiiiiiiiiiiiiiiiiiiii4o.$r3;",
";3r$.o4iiiiiiiiiiiiiiiiiiiiiiiiiiiiiiiiiiiiiii0+....+0iiiiiiiiiiiiiiiiiiiiiiiiiiiiiiiiiiiiiii4o.$r3;",
";3r$.o4iiiiiiiiiiiiiiiiiiiiiiiiiiiiiiiiiiiiiii0+....+0iiiiiiiiiiiiiiiiiiiiiiiiiiiiiiiiiiiiiii4o.$r3;",
";3r$.o4iiiiiiiiiiiiiiiiiiiiiiiiiiiiiiiiiiiiiii0+....+0iiiiiiiiiiiiiiiiiiiiiiiiiiiiiiiiiiiiiii4o.$r3;",
";3r$.o4iiiiiiiiiiiiiiiiiiiiiiiiiiiiiiiiiiiiiii0+....+0iiiiiiiiiiiiiiiiiiiiiiiiiiiiiiiiiiiiiii4o.$r3;",
";3r$.o4iiiiiiiiiiiiiiiiiiiiiiiiiiiiiiiiiiiiiii0+....+0iiiiiiiiiiiiiiiiiiiiiiiiiiiiiiiiiiiiiii4o.$r3;",
";3r$.o4iiiiiiiiiiiiiiiiiiiiiiiiiiiiiiiiiiiiiii0+....+0iiiiiiiiiiiiiiiiiiiiiiiiiiiiiiiiiiiiiii4o.$r3;",
";3r$.o4iiiiiiiiiiiiiiiiiiiiiiiiiiiiiiiiiiiiiii0+....+0iiiiiiiiiiiiiiiiiiiiiiiiiiiiiiiiiiiiiii4o.$r3;",
";3r$.o4iiiiiiiiiiiiiiiiiiiiiiiiiiiiiiiiiiiiiii7O....O7iiiiiiiiiiiiiiiiiiiiiiiiiiiiiiiiiiiiiii4o.$r3;",
";3r$.o4iiiiiiiiiiiiiiiiiiiiiiiiiiiiiiiiiiiiiiq%......%qiiiiiiiiiiiiiiiiiiiiiiiiiiiiiiiiiiiiii4o.$r3;",
";3r$.o4iiiiiiiiiiiiiiiiiiiiiiiiiiiiiiiiiiiiiq%........%qiiiiiiiiiiiiiiiiiiiiiiiiiiiiiiiiiiiii4o.$r3;",
";3r$.o4iiir000000000000000000000000000000007%..........%700000000000000000000000000000000riii4o.$r3;",
";3r$.o4iie*++++++++++++++++++++++++++++++++O............O++++++++++++++++++++++++++++++++*eii4o.$r3;",
";3r$.o4ii-................................................................................-ii4o.$r3;",
";3r$.o4ii*................................................................................*ii4o.$r3;",
";3r$.o4ii*......................................X.........................................*ii4o.$r3;",
";3r$.o4ii-................................................................................-ii4o.$r3;",
";3r$.o4iie*++++++++++++++++++++++++++++++++O....X....X..O++++++++++++++++++++++++++++++++*eii4o.$r3;",
";3r$.o4iiir000000000000000000000000000000007%........X.%700000000000000000000000000000000riii4o.$r3;",
";3r$.o4iiiiiiiiiiiiiiiiiiiiiiiiiiiiiiiiiiiiiq%........%qiiiiiiiiiiiiiiiiiiiiiiiiiiiiiiiiiiiii4o.$r3;",
";3r$.o4iiiiiiiiiiiiiiiiiiiiiiiiiiiiiiiiiiiiiiq%......%qiiiiiiiiiiiiiiiiiiiiiiiiiiiiiiiiiiiiii4o.$r3;",
";3r$.o4iiiiiiiiiiiiiiiiiiiiiiiiiiiiiiiiiiiiiii7O....O7iiiiiiiiiiiiiiiiiiiiiiiiiiiiiiiiiiiiiii4o.$r3;",
";3r$.o4iiiiiiiiiiiiiiiiiiiiiiiiiiiiiiiiiiiiiii0+....+0iiiiiiiiiiiiiiiiiiiiiiiiiiiiiiiiiiiiiii4o.$r3;",
";3r$.o4iiiiiiiiiiiiiiiiiiiiiiiiiiiiiiiiiiiiiii0+....+0iiiiiiiiiiiiiiiiiiiiiiiiiiiiiiiiiiiiiii4o.$r3;",
";3r$.o4iiiiiiiiiiiiiiiiiiiiiiiiiiiiiiiiiiiiiii0+....+0iiiiiiiiiiiiiiiiiiiiiiiiiiiiiiiiiiiiiii4o.$r3;",
";3r$.o4iiiiiiiiiiiiiiiiiiiiiiiiiiiiiiiiiiiiiii0+....+0iiiiiiiiiiiiiiiiiiiiiiiiiiiiiiiiiiiiiii4o.$r3;",
";3r$.o4iiiiiiiiiiiiiiiiiiiiiiiiiiiiiiiiiiiiiii0+....+0iiiiiiiiiiiiiiiiiiiiiiiiiiiiiiiiiiiiiii4o.$r3;",
";3r$.o4iiiiiiiiiiiiiiiiiiiiiiiiiiiiiiiiiiiiiii0+....+0iiiiiiiiiiiiiiiiiiiiiiiiiiiiiiiiiiiiiii4o.$r3;",
";3r$.o4iiiiiiiiiiiiiiiiiiiiiiiiiiiiiiiiiiiiiii0+....+0iiiiiiiiiiiiiiiiiiiiiiiiiiiiiiiiiiiiiii4o.$r3;",
";3r$.o4iiiiiiiiiiiiiiiiiiiiiiiiiiiiiiiiiiiiiii0+....+0iiiiiiiiiiiiiiiiiiiiiiiiiiiiiiiiiiiiiii4o.$r3;",
";3r$.o4iiiiiiiiiiiiiiiiiiiiiiiiiiiiiiiiiiiiiii0+....+0iiiiiiiiiiiiiiiiiiiiiiiiiiiiiiiiiiiiiii4o.$r3;",
";3r$.o4iiiiiiiiiiiiiiiiiiiiiiiiiiiiiiiiiiiiiii0+....+0iiiiiiiiiiiiiiiiiiiiiiiiiiiiiiiiiiiiiii4o.$r3;",
";3r$.o4iiiiiiiiiiiiiiiiiiiiiiiiiiiiiiiiiiiiiii0+....+0iiiiiiiiiiiiiiiiiiiiiiiiiiiiiiiiiiiiiii4o.$r3;",
";3r$.X1iiiiiiiiiiiiiiiiiiiiiiiiiiiiiiiiiiiiiii0+....+0iiiiiiiiiiiiiiiiiiiiiiiiiiiiiiiiiiiiiii1X.$r3;",
";3r$..$0iiiiiiiiiiiiiiiiiiiiiiiiiiiiiiiiiiiiii0+....+0iiiiiiiiiiiiiiiiiiiiiiiiiiiiiiiiiiiiii0$..$r3;",
";3r$ ..$0iiiiiiiiiiiiiiiiiiiiiiiiiiiiiiiiiiiii0+....+0iiiiiiiiiiiiiiiiiiiiiiiiiiiiiiiiiiiii0$.. $r3;",
";3t&$$@.$0iiiiiiiiiiiiiiiiiiiiiiiiiiiiiiiiiiii0+....+0iiiiiiiiiiiiiiiiiiiiiiiiiiiiiiiiiiii0$.@$$&t3;",
";3utrr4# $0iiiiiiiiiiiiiiiiiiiiiiiiiiiiiiiiiii0+....+0iiiiiiiiiiiiiiiiiiiiiiiiiiiiiiiiiii0$ #4rrtu3;",
";3iiiii5# $0iiiiiiiiiiiiiiiiiiiiiiiiiiiiiiiiii0+....+0iiiiiiiiiiiiiiiiiiiiiiiiiiiiiiiiii0$ #5iiiii3;",
";3ittiii5# $0iiiiiiiiiiiiiiiiiiiiiiiiiiiiiiiii0+....+0iiiiiiiiiiiiiiiiiiiiiiiiiiiiiiiii0$ #5iiitti3;",
";3y64wiii5# $0iiiiiiiiiiiiiiiiiiiiiiiiiiiiiiii0+....+0iiiiiiiiiiiiiiiiiiiiiiiiiiiiiiii0$ #5iiiw46y3;",
";3t4,2wiii5# $0iiiiiiiiiiiiiiiiiiiiiiiiiiiiiii0+....+0iiiiiiiiiiiiiiiiiiiiiiiiiiiiiii0$ #5iiiw2,4t3;",
";3t4<<2wiii5# $0iiiiiiiiiiiiiiiiiiiiiiiiiiiiii0+....+0iiiiiiiiiiiiiiiiiiiiiiiiiiiiii0$ #5iiiw2<<4t3;",
";3t4<<<2wiii5# $0iiiiiiiiiiiiiiiiiiiiiiiiiiiii0+....+0iiiiiiiiiiiiiiiiiiiiiiiiiiiii0$ #5iiiw2<<<4t3;",
";3t4<<<<2wiii5# $0iiiiiiiiiiiiiiiiiiiiiiiiiiii0+....+0iiiiiiiiiiiiiiiiiiiiiiiiiiii0$ #5iiiw2<<<<4t3;",
";3t4<<<<<2wiii5# $0iiiiiiiiiiiiiiiiiiiiiiiiiii0+....+0iiiiiiiiiiiiiiiiiiiiiiiiiii0$ #5iiiw2<<<<<4t3;",
";3t4<<<<<<2wiii5# $0iiiiiiiiiiiiiiiiiiiiiiiiii0+....+0iiiiiiiiiiiiiiiiiiiiiiiiii0$ #5iiiw2<<<<<<4t3;",
";3t4<<<<<<<2wiii5# $0iiiiiiiiiiiiiiiiiiiiiiiii0+....+0iiiiiiiiiiiiiiiiiiiiiiiii0$ #5iiiw2<<<<<<<4t3;",
";3t4<<<<<<<<2wiii5# $0iiiiiiiiiiiiiiiiiiiiiiii0+....+0iiiiiiiiiiiiiiiiiiiiiiii0$ #5iiiw2<<<<<<<<4t3;",
";3t4<<<<<<<<<2wiii5# $0iiiiiiiiiiiiiiiiiiiiiii0+....+0iiiiiiiiiiiiiiiiiiiiiii0$ #5iiiw2<<<<<<<<<4t3;",
";3t4<<<<<<<<<<2wiii5# $0iiiiiiiiiiiiiiiiiiiiii0+....+0iiiiiiiiiiiiiiiiiiiiii0$ #5iiiw2<<<<<<<<<<4t3;",
";3t4<<<<<<<<<<<2wiii5# $0iiiiiiiiiiiiiiiiiiiii0+....+0iiiiiiiiiiiiiiiiiiiii0$ #5iiiw2<<<<<<<<<<<4t3;",
";3t4<<<<<<<<<<<<2wiii5# $0iiiiiiiiiiiiiiiiiiii0+....+0iiiiiiiiiiiiiiiiiiii0$ #5iiiw2<<<<<<<<<<<<4t3;",
";3t4<<<<<<<<<<<<<2wiii5# $0iiiiiiiiiiiiiiiiiii0+....+0iiiiiiiiiiiiiiiiiii0$ #5iiiw2<<<<<<<<<<<<<4t3;",
";3t4<<<<<<<<<<<<<<2wiii5# $0iiiiiiiiiiiiiiiiiir*....*riiiiiiiiiiiiiiiiii0$ #5iiiw2<<<<<<<<<<<<<<4t3;",
";3t4<<<<<<<<<<<<<<<2wiii5# $0iiiiiiiiiiiiiiiiiie-**-eiiiiiiiiiiiiiiiiii0$ #5iiiw2<<<<<<<<<<<<<<<4t3;",
";3t4<<<<<<<<<<<<<<<<2wiii5# $0iiiiiiiiiiiiiiiiiiiiiiiiiiiiiiiiiiiiiiii0$ #5iiiw2<<<<<<<<<<<<<<<<4t3;",
";3t4<<<<<<<<<<<<<<<<<2wiii5#.$0iiiiiiiiiiiiiiiiiiiiiiiiiiiiiiiiiiiiii0$.#5iiiw2<<<<<<<<<<<<<<<<<4t3;",
";3t4<<<<<<<<<<<<<<<<<<2wiii4@.$14444444444444444444444444444444444441$.@4iiiw2<<<<<<<<<<<<<<<<<<4t3;",
";3t4<<<<<<<<<<<<<<<<<<<2wiir$..XooooooooooooooooooooooooooooooooooooX..$riiw2<<<<<<<<<<<<<<<<<<<4t3;",
";3u9<<<<<<<<<<<<<<<<<<<,4tir$ ........................................ $rit4,<<<<<<<<<<<<<<<<<<<9u3;",
":1it944444444444444444446tit&$$$$$$$$$$$$$$$$$$$$$$$$$$$$$$$$$$$$$$$$$$&tit644444444444444444449ti1:",
">18iutttttttttttttttttttyiiutrrrrrrrrrrrrrrrrrrrrrrrrrrrrrrrrrrrrrrrrrrtuiiytttttttttttttttttttui81>",
",e113333333333333333333333333333333333333333333333333333333333333333333333333333333333333333333311e,",
"=,>:;;;;;;;;;;;;;;;;;;;;;;;;;;;;;;;;;;;;;;;;;;;;;;;;;;;;;;;;;;;;;;;;;;;;;;;;;;;;;;;;;;;;;;;;;;;;:>,="
};
