/* XPM */
static char *_177fd106b504b03b50a6a7154fadc416mHc1TxXqtRccoFc[] = {
/* columns rows colors chars-per-pixel */
"100 100 4 1 ",
"  c black",
". c #FF0E00",
"X c #FAFF08",
"o c #8270FE",
/* pixels */
"                                                                                                    ",
" ooooooooooooooooooo ooooooooooooooooooo ooooooooooooooooooo ooooooooooooooooooo oooooooooooooooooo ",
" ooooooooooooooooooo ooooooooooooooooooo ooooooooooooooooooo ooooooooooooooooooo oooooooooooooooooo ",
" ooooooooooooooooooo ooooooooooooooooooo ooooooooooooooooooo ooooooooooooooooooo oooooooooooooooooo ",
" ooooooooooooooooooo ooooooooooooooooooo ooooooooooooooooooo ooooooooooooooooooo oooooooooooooooooo ",
" ooooooooooooooooooo ooooooooooooooooooo ooooooooooooooooooo ooooooooooooooooooo oooooooooooooooooo ",
" ooooooooooooooooooo ooooooooooooooooooo ooooooooooooooooooo ooooooooooooooooooo oooooooooooooooooo ",
" ooooooooooooooooooo ooooooooooooooooooo ooooooooooooooooooo ooooooooooooooooooo oooooooooooooooooo ",
" ooooooooooooooooooo ooooooooooooooooooo ooooooooooooooooooo ooooooooooooooooooo oooooooooooooooooo ",
" ooooooooooooooooooo ooooooooooooooooooo ooooooooooooooooooo ooooooooooooooooooo oooooooooooooooooo ",
" ooooooooooooooooooo ooooooooooooooooooo ooooooooooooooooooo ooooooooooooooooooo oooooooooooooooooo ",
" ooooooooooooooooooo ooooooooooooooooooo ooooooooooooooooooo ooooooooooooooooooo oooooooooooooooooo ",
" ooooooooooooooooooo ooooooooooooooooooo ooooooooooooooooooo ooooooooooooooooooo oooooooooooooooooo ",
" ooooooooooooooooooo ooooooooooooooooooo ooooooooooooooooooo ooooooooooooooooooo oooooooooooooooooo ",
" ooooooooooooooooooo ooooooooooooooooooo ooooooooooooooooooo ooooooooooooooooooo oooooooooooooooooo ",
" ooooooooooooooooooo ooooooooooooooooooo ooooooooooooooooooo ooooooooooooooooooo oooooooooooooooooo ",
" ooooooooooooooooooo ooooooooooooooooooo ooooooooooooooooooo ooooooooooooooooooo oooooooooooooooooo ",
" ooooooooooooooooooo ooooooooooooooooooo ooooooooooooooooooo ooooooooooooooooooo oooooooooooooooooo ",
" ooooooooooooooooooo ooooooooooooooooooo ooooooooooooooooooo ooooooooooooooooooo oooooooooooooooooo ",
" ooooooooooooooooooo ooooooooooooooooooo ooooooooooooooooooo ooooooooooooooooooo oooooooooooooooooo ",
"                                                                                                    ",
" ooooooooooooooooooo ................... ................... ................... oooooooooooooooooo ",
" ooooooooooooooooooo ................... ................... ................... oooooooooooooooooo ",
" ooooooooooooooooooo ................... ................... ................... oooooooooooooooooo ",
" ooooooooooooooooooo ................... ................... ................... oooooooooooooooooo ",
" ooooooooooooooooooo ................... ................... ................... oooooooooooooooooo ",
" ooooooooooooooooooo ................... ................... ................... oooooooooooooooooo ",
" ooooooooooooooooooo ................... ................... ................... oooooooooooooooooo ",
" ooooooooooooooooooo ................... ................... ................... oooooooooooooooooo ",
" ooooooooooooooooooo ................... ................... ................... oooooooooooooooooo ",
" ooooooooooooooooooo ................... ................... ................... oooooooooooooooooo ",
" ooooooooooooooooooo ................... ................... ................... oooooooooooooooooo ",
" ooooooooooooooooooo ................... ................... ................... oooooooooooooooooo ",
" ooooooooooooooooooo ................... ................... ................... oooooooooooooooooo ",
" ooooooooooooooooooo ................... ................... ................... oooooooooooooooooo ",
" ooooooooooooooooooo ................... ................... ................... oooooooooooooooooo ",
" ooooooooooooooooooo ................... ................... ................... oooooooooooooooooo ",
" ooooooooooooooooooo ................... ................... ................... oooooooooooooooooo ",
" ooooooooooooooooooo ................... ................... ................... oooooooooooooooooo ",
" ooooooooooooooooooo ................... ................... ................... oooooooooooooooooo ",
"                                                                                                    ",
" ooooooooooooooooooo ................... XXXXXXXXXXXXXXXXXXX ................... oooooooooooooooooo ",
" ooooooooooooooooooo ................... XXXXXXXXXXXXXXXXXXX ................... oooooooooooooooooo ",
" ooooooooooooooooooo ................... XXXXXXXXXXXXXXXXXXX ................... oooooooooooooooooo ",
" ooooooooooooooooooo ................... XXXXXXXXXXXXXXXXXXX ................... oooooooooooooooooo ",
" ooooooooooooooooooo ................... XXXXXXXXXXXXXXXXXXX ................... oooooooooooooooooo ",
" ooooooooooooooooooo ................... XXXXXXXXXXXXXXXXXXX ................... oooooooooooooooooo ",
" ooooooooooooooooooo ................... XXXXXXXXXXXXXXXXXXX ................... oooooooooooooooooo ",
" ooooooooooooooooooo ................... XXXXXXXXXXXXXXXXXXX ................... oooooooooooooooooo ",
" ooooooooooooooooooo ................... XXXXXXXXXXXXXXXXXXX ................... oooooooooooooooooo ",
" ooooooooooooooooooo ................... XXXXXXXXXXXXXXXXXXX ................... oooooooooooooooooo ",
" ooooooooooooooooooo ................... XXXXXXXXXXXXXXXXXXX ................... oooooooooooooooooo ",
" ooooooooooooooooooo ................... XXXXXXXXXXXXXXXXXXX ................... oooooooooooooooooo ",
" ooooooooooooooooooo ................... XXXXXXXXXXXXXXXXXXX ................... oooooooooooooooooo ",
" ooooooooooooooooooo ................... XXXXXXXXXXXXXXXXXXX ................... oooooooooooooooooo ",
" ooooooooooooooooooo ................... XXXXXXXXXXXXXXXXXXX ................... oooooooooooooooooo ",
" ooooooooooooooooooo ................... XXXXXXXXXXXXXXXXXXX ................... oooooooooooooooooo ",
" ooooooooooooooooooo ................... XXXXXXXXXXXXXXXXXXX ................... oooooooooooooooooo ",
" ooooooooooooooooooo ................... XXXXXXXXXXXXXXXXXXX ................... oooooooooooooooooo ",
" ooooooooooooooooooo ................... XXXXXXXXXXXXXXXXXXX ................... oooooooooooooooooo ",
"                                                                                                    ",
" ooooooooooooooooooo ................... ................... ................... oooooooooooooooooo ",
" ooooooooooooooooooo ................... ................... ................... oooooooooooooooooo ",
" ooooooooooooooooooo ................... ................... ................... oooooooooooooooooo ",
" ooooooooooooooooooo ................... ................... ................... oooooooooooooooooo ",
" ooooooooooooooooooo ................... ................... ................... oooooooooooooooooo ",
" ooooooooooooooooooo ................... ................... ................... oooooooooooooooooo ",
" ooooooooooooooooooo ................... ................... ................... oooooooooooooooooo ",
" ooooooooooooooooooo ................... ................... ................... oooooooooooooooooo ",
" ooooooooooooooooooo ................... ................... ................... oooooooooooooooooo ",
" ooooooooooooooooooo ................... ................... ................... oooooooooooooooooo ",
" ooooooooooooooooooo ................... ................... ................... oooooooooooooooooo ",
" ooooooooooooooooooo ................... ................... ................... oooooooooooooooooo ",
" ooooooooooooooooooo ................... ................... ................... oooooooooooooooooo ",
" ooooooooooooooooooo ................... ................... ................... oooooooooooooooooo ",
" ooooooooooooooooooo ................... ................... ................... oooooooooooooooooo ",
" ooooooooooooooooooo ................... ................... ................... oooooooooooooooooo ",
" ooooooooooooooooooo ................... ................... ................... oooooooooooooooooo ",
" ooooooooooooooooooo ................... ................... ................... oooooooooooooooooo ",
" ooooooooooooooooooo ................... ................... ................... oooooooooooooooooo ",
"                                                                                                    ",
" ooooooooooooooooooo ooooooooooooooooooo ooooooooooooooooooo ooooooooooooooooooo oooooooooooooooooo ",
" ooooooooooooooooooo ooooooooooooooooooo ooooooooooooooooooo ooooooooooooooooooo oooooooooooooooooo ",
" ooooooooooooooooooo ooooooooooooooooooo ooooooooooooooooooo ooooooooooooooooooo oooooooooooooooooo ",
" ooooooooooooooooooo ooooooooooooooooooo ooooooooooooooooooo ooooooooooooooooooo oooooooooooooooooo ",
" ooooooooooooooooooo ooooooooooooooooooo ooooooooooooooooooo ooooooooooooooooooo oooooooooooooooooo ",
" ooooooooooooooooooo ooooooooooooooooooo ooooooooooooooooooo ooooooooooooooooooo oooooooooooooooooo ",
" ooooooooooooooooooo ooooooooooooooooooo ooooooooooooooooooo ooooooooooooooooooo oooooooooooooooooo ",
" ooooooooooooooooooo ooooooooooooooooooo ooooooooooooooooooo ooooooooooooooooooo oooooooooooooooooo ",
" ooooooooooooooooooo ooooooooooooooooooo ooooooooooooooooooo ooooooooooooooooooo oooooooooooooooooo ",
" ooooooooooooooooooo ooooooooooooooooooo ooooooooooooooooooo ooooooooooooooooooo oooooooooooooooooo ",
" ooooooooooooooooooo ooooooooooooooooooo ooooooooooooooooooo ooooooooooooooooooo oooooooooooooooooo ",
" ooooooooooooooooooo ooooooooooooooooooo ooooooooooooooooooo ooooooooooooooooooo oooooooooooooooooo ",
" ooooooooooooooooooo ooooooooooooooooooo ooooooooooooooooooo ooooooooooooooooooo oooooooooooooooooo ",
" ooooooooooooooooooo ooooooooooooooooooo ooooooooooooooooooo ooooooooooooooooooo oooooooooooooooooo ",
" ooooooooooooooooooo ooooooooooooooooooo ooooooooooooooooooo ooooooooooooooooooo oooooooooooooooooo ",
" ooooooooooooooooooo ooooooooooooooooooo ooooooooooooooooooo ooooooooooooooooooo oooooooooooooooooo ",
" ooooooooooooooooooo ooooooooooooooooooo ooooooooooooooooooo ooooooooooooooooooo oooooooooooooooooo ",
" ooooooooooooooooooo ooooooooooooooooooo ooooooooooooooooooo ooooooooooooooooooo oooooooooooooooooo ",
"                                                                                                    "
};
