/* XPM */
static char *b1a3700b73f241edea8b97f6e1e737b4EL7B69tyUZcSIQZZ[] = {
/* columns rows colors chars-per-pixel */
"100 100 3 1 ",
"  c black",
". c gray47",
"X c #BBBBBB",
/* pixels */
"                                                                                                    ",
" XXXXXXXXXXXXXXXXXXX XXXXXXXXXXXXXXXXXXX ................... XXXXXXXXXXXXXXXXXXX XXXXXXXXXXXXXXXXXX ",
" XXXXXXXXXXXXXXXXXXX XXXXXXXXXXXXXXXXXXX ................... XXXXXXXXXXXXXXXXXXX XXXXXXXXXXXXXXXXXX ",
" XXXXXXXXXXXXXXXXXXX XXXXXXXXXXXXXXXXXXX ................... XXXXXXXXXXXXXXXXXXX XXXXXXXXXXXXXXXXXX ",
" XXXXXXXXXXXXXXXXXXX XXXXXXXXXXXXXXXXXXX ................... XXXXXXXXXXXXXXXXXXX XXXXXXXXXXXXXXXXXX ",
" XXXXXXXXXXXXXXXXXXX XXXXXXXXXXXXXXXXXXX ................... XXXXXXXXXXXXXXXXXXX XXXXXXXXXXXXXXXXXX ",
" XXXXXXXXXXXXXXXXXXX XXXXXXXXXXXXXXXXXXX ................... XXXXXXXXXXXXXXXXXXX XXXXXXXXXXXXXXXXXX ",
" XXXXXXXXXXXXXXXXXXX XXXXXXXXXXXXXXXXXXX ................... XXXXXXXXXXXXXXXXXXX XXXXXXXXXXXXXXXXXX ",
" XXXXXXXXXXXXXXXXXXX XXXXXXXXXXXXXXXXXXX ................... XXXXXXXXXXXXXXXXXXX XXXXXXXXXXXXXXXXXX ",
" XXXXXXXXXXXXXXXXXXX XXXXXXXXXXXXXXXXXXX ................... XXXXXXXXXXXXXXXXXXX XXXXXXXXXXXXXXXXXX ",
" XXXXXXXXXXXXXXXXXXX XXXXXXXXXXXXXXXXXXX ................... XXXXXXXXXXXXXXXXXXX XXXXXXXXXXXXXXXXXX ",
" XXXXXXXXXXXXXXXXXXX XXXXXXXXXXXXXXXXXXX ................... XXXXXXXXXXXXXXXXXXX XXXXXXXXXXXXXXXXXX ",
" XXXXXXXXXXXXXXXXXXX XXXXXXXXXXXXXXXXXXX ................... XXXXXXXXXXXXXXXXXXX XXXXXXXXXXXXXXXXXX ",
" XXXXXXXXXXXXXXXXXXX XXXXXXXXXXXXXXXXXXX ................... XXXXXXXXXXXXXXXXXXX XXXXXXXXXXXXXXXXXX ",
" XXXXXXXXXXXXXXXXXXX XXXXXXXXXXXXXXXXXXX ................... XXXXXXXXXXXXXXXXXXX XXXXXXXXXXXXXXXXXX ",
" XXXXXXXXXXXXXXXXXXX XXXXXXXXXXXXXXXXXXX ................... XXXXXXXXXXXXXXXXXXX XXXXXXXXXXXXXXXXXX ",
" XXXXXXXXXXXXXXXXXXX XXXXXXXXXXXXXXXXXXX ................... XXXXXXXXXXXXXXXXXXX XXXXXXXXXXXXXXXXXX ",
" XXXXXXXXXXXXXXXXXXX XXXXXXXXXXXXXXXXXXX ................... XXXXXXXXXXXXXXXXXXX XXXXXXXXXXXXXXXXXX ",
" XXXXXXXXXXXXXXXXXXX XXXXXXXXXXXXXXXXXXX ................... XXXXXXXXXXXXXXXXXXX XXXXXXXXXXXXXXXXXX ",
" XXXXXXXXXXXXXXXXXXX XXXXXXXXXXXXXXXXXXX ................... XXXXXXXXXXXXXXXXXXX XXXXXXXXXXXXXXXXXX ",
"                                                                                                    ",
" XXXXXXXXXXXXXXXXXXX XXXXXXXXXXXXXXXXXXX ................... XXXXXXXXXXXXXXXXXXX XXXXXXXXXXXXXXXXXX ",
" XXXXXXXXXXXXXXXXXXX XXXXXXXXXXXXXXXXXXX ................... XXXXXXXXXXXXXXXXXXX XXXXXXXXXXXXXXXXXX ",
" XXXXXXXXXXXXXXXXXXX XXXXXXXXXXXXXXXXXXX ................... XXXXXXXXXXXXXXXXXXX XXXXXXXXXXXXXXXXXX ",
" XXXXXXXXXXXXXXXXXXX XXXXXXXXXXXXXXXXXXX ................... XXXXXXXXXXXXXXXXXXX XXXXXXXXXXXXXXXXXX ",
" XXXXXXXXXXXXXXXXXXX XXXXXXXXXXXXXXXXXXX ................... XXXXXXXXXXXXXXXXXXX XXXXXXXXXXXXXXXXXX ",
" XXXXXXXXXXXXXXXXXXX XXXXXXXXXXXXXXXXXXX ................... XXXXXXXXXXXXXXXXXXX XXXXXXXXXXXXXXXXXX ",
" XXXXXXXXXXXXXXXXXXX XXXXXXXXXXXXXXXXXXX ................... XXXXXXXXXXXXXXXXXXX XXXXXXXXXXXXXXXXXX ",
" XXXXXXXXXXXXXXXXXXX XXXXXXXXXXXXXXXXXXX ................... XXXXXXXXXXXXXXXXXXX XXXXXXXXXXXXXXXXXX ",
" XXXXXXXXXXXXXXXXXXX XXXXXXXXXXXXXXXXXXX ................... XXXXXXXXXXXXXXXXXXX XXXXXXXXXXXXXXXXXX ",
" XXXXXXXXXXXXXXXXXXX XXXXXXXXXXXXXXXXXXX ................... XXXXXXXXXXXXXXXXXXX XXXXXXXXXXXXXXXXXX ",
" XXXXXXXXXXXXXXXXXXX XXXXXXXXXXXXXXXXXXX ................... XXXXXXXXXXXXXXXXXXX XXXXXXXXXXXXXXXXXX ",
" XXXXXXXXXXXXXXXXXXX XXXXXXXXXXXXXXXXXXX ................... XXXXXXXXXXXXXXXXXXX XXXXXXXXXXXXXXXXXX ",
" XXXXXXXXXXXXXXXXXXX XXXXXXXXXXXXXXXXXXX ................... XXXXXXXXXXXXXXXXXXX XXXXXXXXXXXXXXXXXX ",
" XXXXXXXXXXXXXXXXXXX XXXXXXXXXXXXXXXXXXX ................... XXXXXXXXXXXXXXXXXXX XXXXXXXXXXXXXXXXXX ",
" XXXXXXXXXXXXXXXXXXX XXXXXXXXXXXXXXXXXXX ................... XXXXXXXXXXXXXXXXXXX XXXXXXXXXXXXXXXXXX ",
" XXXXXXXXXXXXXXXXXXX XXXXXXXXXXXXXXXXXXX ................... XXXXXXXXXXXXXXXXXXX XXXXXXXXXXXXXXXXXX ",
" XXXXXXXXXXXXXXXXXXX XXXXXXXXXXXXXXXXXXX ................... XXXXXXXXXXXXXXXXXXX XXXXXXXXXXXXXXXXXX ",
" XXXXXXXXXXXXXXXXXXX XXXXXXXXXXXXXXXXXXX ................... XXXXXXXXXXXXXXXXXXX XXXXXXXXXXXXXXXXXX ",
" XXXXXXXXXXXXXXXXXXX XXXXXXXXXXXXXXXXXXX ................... XXXXXXXXXXXXXXXXXXX XXXXXXXXXXXXXXXXXX ",
"                                                                                                    ",
" ................... ................... ................... ................... .................. ",
" ................... ................... ................... ................... .................. ",
" ................... ................... ................... ................... .................. ",
" ................... ................... ................... ................... .................. ",
" ................... ................... ................... ................... .................. ",
" ................... ................... ................... ................... .................. ",
" ................... ................... ................... ................... .................. ",
" ................... ................... ................... ................... .................. ",
" ................... ................... ................... ................... .................. ",
" ................... ................... ................... ................... .................. ",
" ................... ................... ................... ................... .................. ",
" ................... ................... ................... ................... .................. ",
" ................... ................... ................... ................... .................. ",
" ................... ................... ................... ................... .................. ",
" ................... ................... ................... ................... .................. ",
" ................... ................... ................... ................... .................. ",
" ................... ................... ................... ................... .................. ",
" ................... ................... ................... ................... .................. ",
" ................... ................... ................... ................... .................. ",
"                                                                                                    ",
" XXXXXXXXXXXXXXXXXXX XXXXXXXXXXXXXXXXXXX ................... XXXXXXXXXXXXXXXXXXX XXXXXXXXXXXXXXXXXX ",
" XXXXXXXXXXXXXXXXXXX XXXXXXXXXXXXXXXXXXX ................... XXXXXXXXXXXXXXXXXXX XXXXXXXXXXXXXXXXXX ",
" XXXXXXXXXXXXXXXXXXX XXXXXXXXXXXXXXXXXXX ................... XXXXXXXXXXXXXXXXXXX XXXXXXXXXXXXXXXXXX ",
" XXXXXXXXXXXXXXXXXXX XXXXXXXXXXXXXXXXXXX ................... XXXXXXXXXXXXXXXXXXX XXXXXXXXXXXXXXXXXX ",
" XXXXXXXXXXXXXXXXXXX XXXXXXXXXXXXXXXXXXX ................... XXXXXXXXXXXXXXXXXXX XXXXXXXXXXXXXXXXXX ",
" XXXXXXXXXXXXXXXXXXX XXXXXXXXXXXXXXXXXXX ................... XXXXXXXXXXXXXXXXXXX XXXXXXXXXXXXXXXXXX ",
" XXXXXXXXXXXXXXXXXXX XXXXXXXXXXXXXXXXXXX ................... XXXXXXXXXXXXXXXXXXX XXXXXXXXXXXXXXXXXX ",
" XXXXXXXXXXXXXXXXXXX XXXXXXXXXXXXXXXXXXX ................... XXXXXXXXXXXXXXXXXXX XXXXXXXXXXXXXXXXXX ",
" XXXXXXXXXXXXXXXXXXX XXXXXXXXXXXXXXXXXXX ................... XXXXXXXXXXXXXXXXXXX XXXXXXXXXXXXXXXXXX ",
" XXXXXXXXXXXXXXXXXXX XXXXXXXXXXXXXXXXXXX ................... XXXXXXXXXXXXXXXXXXX XXXXXXXXXXXXXXXXXX ",
" XXXXXXXXXXXXXXXXXXX XXXXXXXXXXXXXXXXXXX ................... XXXXXXXXXXXXXXXXXXX XXXXXXXXXXXXXXXXXX ",
" XXXXXXXXXXXXXXXXXXX XXXXXXXXXXXXXXXXXXX ................... XXXXXXXXXXXXXXXXXXX XXXXXXXXXXXXXXXXXX ",
" XXXXXXXXXXXXXXXXXXX XXXXXXXXXXXXXXXXXXX ................... XXXXXXXXXXXXXXXXXXX XXXXXXXXXXXXXXXXXX ",
" XXXXXXXXXXXXXXXXXXX XXXXXXXXXXXXXXXXXXX ................... XXXXXXXXXXXXXXXXXXX XXXXXXXXXXXXXXXXXX ",
" XXXXXXXXXXXXXXXXXXX XXXXXXXXXXXXXXXXXXX ................... XXXXXXXXXXXXXXXXXXX XXXXXXXXXXXXXXXXXX ",
" XXXXXXXXXXXXXXXXXXX XXXXXXXXXXXXXXXXXXX ................... XXXXXXXXXXXXXXXXXXX XXXXXXXXXXXXXXXXXX ",
" XXXXXXXXXXXXXXXXXXX XXXXXXXXXXXXXXXXXXX ................... XXXXXXXXXXXXXXXXXXX XXXXXXXXXXXXXXXXXX ",
" XXXXXXXXXXXXXXXXXXX XXXXXXXXXXXXXXXXXXX ................... XXXXXXXXXXXXXXXXXXX XXXXXXXXXXXXXXXXXX ",
" XXXXXXXXXXXXXXXXXXX XXXXXXXXXXXXXXXXXXX ................... XXXXXXXXXXXXXXXXXXX XXXXXXXXXXXXXXXXXX ",
"                                                                                                    ",
" XXXXXXXXXXXXXXXXXXX XXXXXXXXXXXXXXXXXXX ................... XXXXXXXXXXXXXXXXXXX XXXXXXXXXXXXXXXXXX ",
" XXXXXXXXXXXXXXXXXXX XXXXXXXXXXXXXXXXXXX ................... XXXXXXXXXXXXXXXXXXX XXXXXXXXXXXXXXXXXX ",
" XXXXXXXXXXXXXXXXXXX XXXXXXXXXXXXXXXXXXX ................... XXXXXXXXXXXXXXXXXXX XXXXXXXXXXXXXXXXXX ",
" XXXXXXXXXXXXXXXXXXX XXXXXXXXXXXXXXXXXXX ................... XXXXXXXXXXXXXXXXXXX XXXXXXXXXXXXXXXXXX ",
" XXXXXXXXXXXXXXXXXXX XXXXXXXXXXXXXXXXXXX ................... XXXXXXXXXXXXXXXXXXX XXXXXXXXXXXXXXXXXX ",
" XXXXXXXXXXXXXXXXXXX XXXXXXXXXXXXXXXXXXX ................... XXXXXXXXXXXXXXXXXXX XXXXXXXXXXXXXXXXXX ",
" XXXXXXXXXXXXXXXXXXX XXXXXXXXXXXXXXXXXXX ................... XXXXXXXXXXXXXXXXXXX XXXXXXXXXXXXXXXXXX ",
" XXXXXXXXXXXXXXXXXXX XXXXXXXXXXXXXXXXXXX ................... XXXXXXXXXXXXXXXXXXX XXXXXXXXXXXXXXXXXX ",
" XXXXXXXXXXXXXXXXXXX XXXXXXXXXXXXXXXXXXX ................... XXXXXXXXXXXXXXXXXXX XXXXXXXXXXXXXXXXXX ",
" XXXXXXXXXXXXXXXXXXX XXXXXXXXXXXXXXXXXXX ................... XXXXXXXXXXXXXXXXXXX XXXXXXXXXXXXXXXXXX ",
" XXXXXXXXXXXXXXXXXXX XXXXXXXXXXXXXXXXXXX ................... XXXXXXXXXXXXXXXXXXX XXXXXXXXXXXXXXXXXX ",
" XXXXXXXXXXXXXXXXXXX XXXXXXXXXXXXXXXXXXX ................... XXXXXXXXXXXXXXXXXXX XXXXXXXXXXXXXXXXXX ",
" XXXXXXXXXXXXXXXXXXX XXXXXXXXXXXXXXXXXXX ................... XXXXXXXXXXXXXXXXXXX XXXXXXXXXXXXXXXXXX ",
" XXXXXXXXXXXXXXXXXXX XXXXXXXXXXXXXXXXXXX ................... XXXXXXXXXXXXXXXXXXX XXXXXXXXXXXXXXXXXX ",
" XXXXXXXXXXXXXXXXXXX XXXXXXXXXXXXXXXXXXX ................... XXXXXXXXXXXXXXXXXXX XXXXXXXXXXXXXXXXXX ",
" XXXXXXXXXXXXXXXXXXX XXXXXXXXXXXXXXXXXXX ................... XXXXXXXXXXXXXXXXXXX XXXXXXXXXXXXXXXXXX ",
" XXXXXXXXXXXXXXXXXXX XXXXXXXXXXXXXXXXXXX ................... XXXXXXXXXXXXXXXXXXX XXXXXXXXXXXXXXXXXX ",
" XXXXXXXXXXXXXXXXXXX XXXXXXXXXXXXXXXXXXX ................... XXXXXXXXXXXXXXXXXXX XXXXXXXXXXXXXXXXXX ",
"                                                                                                    "
};
