/* XPM */
static char *_302_771645f8a539a3bc0be706dd4cf8d394d909d1039e2fe48d7136d60d1ebb73b5[] = {
/* columns rows colors chars-per-pixel */
"50 50 219 2 ",
"   c #3B2506",
".  c #372A07",
"X  c #3C2C07",
"o  c #3F2708",
"O  c #3D2B09",
"+  c #3C3407",
"@  c #3E3907",
"#  c #3D3409",
"$  c #3E3C0A",
"%  c #442D0C",
"&  c #482F0D",
"*  c #43330C",
"=  c #49310E",
"-  c #433C0B",
";  c #483A0E",
":  c #492F10",
">  c #453211",
",  c #4C3412",
"<  c #4C3B13",
"1  c #453819",
"2  c #4B3A1B",
"3  c #513614",
"4  c #523B16",
"5  c #5B3E16",
"6  c #543D19",
"7  c #593F1A",
"8  c #45430C",
"9  c #4D450E",
"0  c #464A0D",
"q  c #4A4D0D",
"w  c #4D530E",
"e  c #51570E",
"r  c #525A0E",
"t  c #444410",
"y  c #4C4413",
"u  c #454911",
"i  c #4C4C12",
"p  c #524415",
"a  c #594215",
"s  c #514C14",
"d  c #56421B",
"f  c #5B431D",
"g  c #544B1A",
"h  c #5C4B1D",
"j  c #4E5311",
"k  c #515413",
"l  c #595516",
"z  c #545B13",
"x  c #585D15",
"c  c #55531B",
"v  c #5C541D",
"b  c #575B1A",
"n  c #5B5B1B",
"m  c #61461E",
"M  c #624C1F",
"N  c #60541E",
"B  c #605A1F",
"V  c #58630F",
"C  c #566213",
"Z  c #5A6314",
"A  c #5D6A15",
"S  c #57621A",
"D  c #5B641A",
"F  c #5D691A",
"G  c #616C16",
"H  c #62641C",
"J  c #626C1C",
"K  c #686B1D",
"L  c #657217",
"P  c #65731B",
"I  c #6A761D",
"U  c #6A7B1E",
"Y  c #4C4123",
"T  c #48432A",
"R  c #5D4621",
"E  c #5E4A22",
"W  c #56492C",
"Q  c #5C4D2C",
"!  c #5E5322",
"~  c #5C5B20",
"^  c #565338",
"/  c #614721",
"(  c #644B24",
")  c #694E25",
"_  c #664E29",
"`  c #694F28",
"'  c #645324",
"]  c #6B5326",
"[  c #645A23",
"{  c #6A5C26",
"}  c #66512A",
"|  c #6B532B",
" . c #655B29",
".. c #6B5B29",
"X. c #725326",
"o. c #72562B",
"O. c #795729",
"+. c #745A2D",
"@. c #7B5B2D",
"#. c #655432",
"$. c #695431",
"%. c #6C5833",
"&. c #6C5B39",
"*. c #755B31",
"=. c #715B35",
"-. c #7B5E32",
";. c #5D6222",
":. c #5E6D22",
">. c #646224",
",. c #6A6325",
"<. c #646B23",
"1. c #696A25",
"2. c #666428",
"3. c #6C622A",
"4. c #6B6C2A",
"5. c #706F24",
"6. c #72642B",
"7. c #736B2B",
"8. c #7C6B2C",
"9. c #647322",
"0. c #6A7323",
"q. c #6C7B23",
"w. c #677329",
"e. c #6C732B",
"r. c #6C7C2C",
"t. c #737D25",
"y. c #767729",
"u. c #73742D",
"i. c #747C2B",
"p. c #797C2E",
"a. c #746531",
"s. c #7D6234",
"d. c #736B31",
"f. c #7E6338",
"g. c #6E7B30",
"h. c #7C7633",
"j. c #7D7C34",
"k. c #565E48",
"l. c #6F664A",
"z. c #706242",
"x. c #6F6B51",
"c. c #83612E",
"v. c #89642F",
"b. c #846333",
"n. c #896633",
"m. c #836E32",
"M. c #8C6B35",
"N. c #846439",
"B. c #8C6B3C",
"V. c #916C36",
"C. c #946E39",
"Z. c #9A6E3A",
"A. c #887132",
"S. c #827D34",
"D. c #897B34",
"F. c #927437",
"G. c #907A36",
"H. c #96713A",
"J. c #9B743C",
"K. c #A2733C",
"L. c #837C66",
"P. c #6E8125",
"I. c #6F822B",
"U. c #748525",
"Y. c #7C8C25",
"T. c #73852A",
"R. c #778528",
"E. c #758B2D",
"W. c #7B8D2C",
"Q. c #7C912B",
"!. c #6F8033",
"~. c #738533",
"^. c #7C8434",
"/. c #758C32",
"(. c #7B8D33",
"). c #7B8339",
"_. c #7B9334",
"`. c #7F9936",
"'. c #7D9639",
"]. c #7E9A39",
"[. c #80822B",
"{. c #81932D",
"}. c #828532",
"|. c #8B8534",
" X c #828D34",
".X c #888837",
"XX c #838C3A",
"oX c #819434",
"OX c #899136",
"+X c #859B34",
"@X c #8A9C35",
"#X c #82943B",
"$X c #839D3C",
"%X c #8A993B",
"&X c #9A9F3F",
"*X c #8CA335",
"=X c #84A23D",
"-X c #8BA43C",
";X c #8DA93B",
":X c #93A33B",
">X c #9BA63D",
",X c #94AD3C",
"<X c #96B13E",
"1X c #9AB33D",
"2X c #829E41",
"3X c #9B9B41",
"4X c #85A441",
"5X c #87A844",
"6X c #8CAC43",
"7X c #90AE44",
"8X c #8FB147",
"9X c #8EB34A",
"0X c #96B243",
"qX c #9BB542",
"wX c #9EB943",
"eX c #A3BB44",
"rX c #A8BC46",
"tX c #A9C345",
"yX c #A8C548",
/* pixels */
"] | =.s.i.+X6.s.-.-.*.-.| ` | =.o.*.| o.o.| ] ( ` ) ` | ) / m m m ( ( ( ` N J S D 0.`.4X;X_._.T.].v ",
"x | | +.+X+X[ ` ( ' } | ( +.*.*.*.-.-.*.o.| -.N.+.3.3.] ` ] 4.] ' v f v f N l Z x G T.=X_.`.=X=XT.9.",
"9 d R ' <X+Xi.( ] [ v ` ] | -.-.f.-.( *.-.N.B.@.@.4.'.g.E <.=X_.'./.J x 9 < 8 e j C F 9.9.T.E.q.F j ",
"4 3 R 2 1X;X:Xd ' <.t.y.3.' =.+.` 4 o.f.s.-.@.s.h z F '._./.8XP G A J V X X X X - 9 w q 0 q F J z = ",
"a B h <.<X<X;XD U.U.R.R.>.' +.o.o.` | =.-.N.+.` p 8 j F T._.q.C A Z e - % & % % % X t * y + - J 8 < ",
"v 9.E.-X<X1X*XR.U.E.U.J J { +.| | ` o.o.+.+.O.` 6 % * 8 z z j * 8 8 * % & = = , , = = = < * * ; < < ",
"H R.*X;X,X@XE.9.J P S D n H h [ 3.( h _ | o.| ) f , & % # + * % % % & & & , > , 4 6 5 6 6 4 7 6 4 < ",
"0.J U.{.+XW.U F 9.C F b j n v >.4 y g ( | | ( / ) ( f , = , = = : , , 7 / f E / / / f f f d f m f g ",
"s D D U U.I Z D Z S z x z y i # & 2 7 / / b.-.B.) / m / / ) ) f m M m / ) ( a.| ] ) ) / ( ` M ] ` f ",
"p 8 z Z Z x z x z z x j - ; X % , 6 R / / O.V.Z.X.( / ( ` ) ( ( ( ] ( ) ( ' 4.N h ( ( ) ` ( h ' 7 m ",
"< ; 8 ; 8 j k k z j $ + % & & = , 7 / / R / ( 7 / / f / ( ( ) ( 3.[ ' ( d  .e.z /.q.` ( ( ` ( >.[ 6 ",
"< ; - = % @ - @ O %   O & : 2 2 6 R / ( / / ! ( ( / 7.2.+./ / / ^.e.e.w.k ~.q.r./.y < d M h h 6 B d ",
"a m 4 4 , & % % & % < 6 6 7 f 6 7 ( ( 3.] ' 7.m f 1.i.].(.! f H '.5X].9.S 9.S '.9.b < p >.E 6 6 4 a ",
"d a ( R d 6 d ( f ( o.| %._ R W / +.( j.6.XX ...4.r.4X6X5Xw.<.%X2X4XI.C i j z w.s g f v ( ( ' ( ! d ",
"f ( ( E ( _ ( f ( +.*.( | } R d f 1.] ^.y.*Xw.T.#X'.4X4X].P.W.2X4X:.F S q u y h R ( | o.+./ R ' [ d ",
"| o.] ] _ | ] | ] ' ] ! ( ( ( | 8.oXr.oX_.$X=X$X'.P.q.U U P I I.:.C j 8 8 - , 3 4 f ( _ | $.] ( E } ",
"} } ' 7.E E c ! 2.~ h <.' ` ] { [ 1.W.0X*X=X'.T.G G G G G D z r z j 0 t # 2 4 3 6 7 R / } ] | _ l.#.",
"| | } ! XX! /.~.4X4XT./.~ ( ' ' e.i Z E.5XW.F x A x e A G z e q w + 0 . i 6 ^ 4 R ( R ' | =.+.$.} E ",
"/ ( ] _ q./.].4X2X4XI.U D ( ( R d i q F _.P.Z C r q - + @ * X - @ % y * s , , , 6 d ! 4X} } _ %.| ] ",
"$._ E ' F P.I.q.E.T.A Z n ( ] +.( < 8 j G A r 9 - & & % % % % % = & = , , 4 6 R / g !.g.( | &.&.] } ",
"R R 6 s z P P P q.P x r y R 7 6.h * * s s 8 ; = & & , : & = 3 3 , d 6 7 6 R R ( ( ;.4X~.w.~ R R R R ",
"3 4 2 + $ w C z b 8 - > 4 6 4 , % & : 4 4 3 3 3 3 , 3 4 7 f f R Q E R / _ _ ( ( E /.4X/./.y 6 6 6 4 ",
"6 d < - 8 8 8 > 1 3 , , , , < 6 f / / / M ( ) m 7 ~ / R R R ( ( ' ( 7 R R h H >. .'.]./.:.i y ; 3 2 ",
"Q ' ' R 6 4 6 6 d 6 6 R R ( ..} | o.$.o.O.Z.Z.V.( ~._ ` ] | | ] ..} R d p y 9.T.I.E.q.S S j t 6 R R ",
"_ } e...( ] | ( ( ( _ } | | S.( %.| _ #.m m ( a e.(.] o.| $.| ' ] _ ' d f 6 p < y y j - t < d d _ _ ",
"a.3.,.i.[ 3.j.' ( ( ( } d.a.h.3.6.| } Q ( M ) ~.4Xq.v f / ( | | +.@.) m ( ` ) m / 7 & 3 R | ` | $.%.",
"! r.^.W.i.u.4Xg.u. .2.' d.a.2.^.7.E ( ( 5 / 1._.9.J D 7 m M +.@.O.b.@.@.o.| X.( | ` / ( | ..=.] { E ",
"j D E.=XE.E.`.=X$X'.'.(.#X#X/.$XD c N m 3 3 p s k s < 6 X.) O.c.v.v.n.n.c.@.O.+.-.*.&.+.o.>.| ] v b ",
"* t J T.U.U P.U U U.E.U.R.#X=XoX0.t.M ) M 5 a & & = 3 m X.n.Z.H.V.O.c.n.n.b.@.O.O.-.+.o._ R f ' 4 c ",
"6 < ; y j S C x G G G P.U G I G G q.5.1.a 4 5 M ) M ) ) v.V.H.V.V.n.n.c.n.s.s.-.*.*.=.z.| .._ ! [ R ",
" .E 6 6 < , 2 < ; p e s z x Z G H G K H 4 f 6.O.c.X.c.c.c.n.c.D.m.n.M.b.N.+.a.| ] _ ` _ }  ..X1._ } ",
"$X ._ _ R h 6 f 4 4 , ; * * * 9 l k k - a S.B c.Z.v.O.n.C.V.|.m.o.+.c.c.s.d...} ] 3.R R R R 0XI.w.2X",
"6Xi.' _ 7 / ` | 3.( ( / f 7 4 , 4 ; , 4 N h ] V.J.J.J.J.H.8. X] ( ' | -.,.4.] }.h._ } }  .;.6X`.=X9X",
"_.I.H 2 R | o.| ] { ' ( ( _ ` ( ) ` ) X.X.) O.c.H.H.F.A.5.OXt.' ' 6.( 3.#X .).3.R R  .Q !.8X9X4X5X8X",
"x p d d ` -.O._ ( ..' | | *.c.n.n.M.V.V.v.n.n.n.V.A.%X%X1X@X{.I 1.n ! `.c b ~ f R 6 ! r.'.6X].T.P.E.",
"* , 6 f / / ( $.] 7.{ =.s.A.m.D.C.Z.Z.F.V.Z.A.y.8.h.qX-X1X{.{.[.Z C I.A - n d R R R < S q.J E.J :.i ",
"R | ( L.%._ ` _ ] @XrX1.6.&XR.|.F.G.F.M.h.M.D.>X*XwX=X%X*XR.Y.U.L L L s x M 5 ( E E d ;.z D J r k 6 ",
"f ` | $.| $.#.E c U.,X:X$XqXOX@XOXeX>X|.:X:X*X1X,XqXOXT.T.L U.I G P I r l 4 < h y s t t $ u t $ % 4 ",
"o.-.O.] _ $.( E ! 1.J *X7X8X,XqXwXyXtXeXtXtXeX1X1X@Xt.k e I U.G V t.H r ; %   X O O O o O %   % 3 / ",
"-.-.s.N.| | _ E g i q.Q.$X'.0X4X6X1XwXeXtX1X*XU.G r z q r V C r V J e 0 * * % % % > # o & , , ! 7 h ",
"-.-.%.=.=.=.6.7.u.b w L q.U.'.#X=X$X,X>X@XY.U V V r z e e w z i q q q # % % % , Y > 1 , , 6 f 7.' [ ",
"*.| ` +.' | | d y D A A A V D 0.q.q.q.I I W.A V r r w 0 q 8 $ # + # @ % > & , T T , 7 5 ( R M i.p.v ",
"..-.-.-.+.+.%.` E < z z x V w e e w w w C q.e w j C t $ $ . > % : & 2 3 6 6 4 k.6 / N.B._ 1.v $X_.D ",
"t.N.n.b.@.| R / R R , 8 q q r q - 8 q w r q 8 8 9.u X X X > 1 T , 7 R / / / 7 ^ f -.J.K.O.D r.0X;Xq.",
"H ] ] | | ] f R 6 4 % % @ @ 0 +     . i b * * O $ O % % & , 6 Y 4 ( ( ` ] ) ( m ) m ( | m p :.].~.J ",
"p ( E ( ` ' ( ( ( 4 & %   X 0       + $ = > , > > , , 6 m / ( ( ( ( ( ( ( ( { ( ( ` M h./ 4 < p p 4 ",
"4 R _ *.-.| +.M ` f 4 , % % o o       % > , T 2 4 R ` o.` _ ) / m ( / / M ( M 3XM { ' XX/ 7 4 = , , ",
"R $.s.*.-.+.*.| ) ` ` / 7 6 4 3 , , , , 3 4 6 7 ` c.o.+.@.@.` ) ) +.` o.O.6.|.y.OXp.4.).5 5 4 4 4 x.",
"$.s.s.f.-.' +.+.=.+.@.s.| ( ( f R f Q R _ ( / _ N.@.X.c.b.@.+.+.X.X.( O.+.7.[.>XoX+X=Xr. .' h f f _ ",
"s.N.+.O.] (.7.N.f.N.f.s.*.s.=.| _ ] &.E ) 7 / ) ` ` -.N.b.-.O.@.o.o./ / m 8.}.K q._.].]._.T.s ( ' ' "
};
