/* XPM */
static char *_684_05f22048bb54a7852e5c56e0148867175fae3494bb50e8fc3b65954dc1fd55b9[] = {
/* columns rows colors chars-per-pixel */
"50 50 139 2 ",
"   c #3A393E",
".  c #3F3E42",
"X  c #464244",
"o  c #4C494B",
"O  c #514D4D",
"+  c #58504E",
"@  c #4E4E52",
"#  c #514E51",
"$  c #535154",
"%  c #5A5554",
"&  c #5E5855",
"*  c #565559",
"=  c #5A5758",
"-  c #5C5A5B",
";  c #625D5B",
":  c #66605E",
">  c #68625E",
",  c #5C5C60",
"<  c #615F61",
"1  c #5F6060",
"2  c #656263",
"3  c #6A6564",
"4  c #6D6966",
"5  c #676568",
"6  c #6A6769",
"7  c #64686B",
"8  c #6C6B6B",
"9  c #716967",
"0  c #726D6B",
"q  c #75716E",
"w  c #79726F",
"e  c #6E6F71",
"r  c #716E70",
"t  c #737273",
"y  c #7A7573",
"u  c #7D7975",
"i  c #767679",
"p  c #767879",
"a  c #7C7B7B",
"s  c #817B76",
"d  c #827E7B",
"f  c #85817E",
"g  c #88827E",
"h  c #7E7F80",
"j  c #817F80",
"k  c #7F8282",
"l  c #838383",
"z  c #8A8682",
"x  c #878887",
"c  c #8C8985",
"v  c #858788",
"b  c #87898A",
"n  c #8C8D8B",
"m  c #928B86",
"M  c #938E8A",
"N  c #8E908F",
"B  c #94918D",
"V  c #9A948D",
"C  c #9C988F",
"Z  c #8E9191",
"A  c #959593",
"S  c #9C9691",
"D  c #979896",
"F  c #9C9994",
"G  c #949798",
"H  c #9A9798",
"J  c #959999",
"K  c #9C9D9A",
"L  c #A09792",
"P  c #A39C95",
"I  c #A39E99",
"U  c #9FA09E",
"Y  c #A6A097",
"T  c #A8A097",
"R  c #A5A19C",
"E  c #AAA49C",
"W  c #AFA89F",
"Q  c #B0A79F",
"!  c #B1A89F",
"~  c #9DA2A2",
"^  c #A4A5A2",
"/  c #AAA6A1",
"(  c #A6A8A6",
")  c #ADAAA4",
"_  c #A6ABAA",
"`  c #ABADAB",
"'  c #B3ADA4",
"]  c #B8AFA5",
"[  c #B2AEA9",
"{  c #ADB1AE",
"}  c #B4B0A6",
"|  c #B9B1A7",
" . c #B5B1AA",
".. c #BBB4AC",
"X. c #BCB8AF",
"o. c #A8AFB0",
"O. c #A7B1B0",
"+. c #ACB3B2",
"@. c #AEB9B8",
"#. c #B2B5B2",
"$. c #BCB7B0",
"%. c #B5BAB6",
"&. c #BDBAB3",
"*. c #B5BDBB",
"=. c #BABEBB",
"-. c #C0B8AF",
";. c #C3BCB4",
":. c #C4BFB8",
">. c #B6C1BF",
",. c #BCC1BD",
"<. c #C6C0B7",
"1. c #C8C0B7",
"2. c #C5C1BB",
"3. c #CBC4BB",
"4. c #CFC8BF",
"5. c #D0C8BF",
"6. c #B7C3C1",
"7. c #BBC4C2",
"8. c #BEC9C6",
"9. c #BFCECC",
"0. c #C1C7C3",
"q. c #CBC7C1",
"w. c #C3CAC6",
"e. c #CDC9C2",
"r. c #C1CDCB",
"t. c #CBCDC9",
"y. c #D3CCC4",
"u. c #C3D1CF",
"i. c #CBD0CB",
"p. c #D7D0C7",
"a. c #D6D2CA",
"s. c #DAD4CB",
"d. c #DFD8CF",
"f. c #C3D2D0",
"g. c #CBD3D1",
"h. c #DCD7D1",
"j. c #DFD9D1",
"k. c #E1DBD3",
"l. c #E6DFD8",
/* pixels */
"P T E 4 d B E ..-.;.| I ..4.s.3.3.4...R N ) } R R E I L ..-...$.} ;.B  .} } Y f &.P S } ] ] ] | | ] ",
"T T M 4 T ' ' ] ....] T | ;...;.;.;.[ c f ) R Y Y E E V T ) [ |  .<.A *.} { f m ] F ..E F E ' ] ] E ",
"E g V m S ..| [  . .P ` } | ] ] ] ] I V l +.) R R K E / G ( ) [ } ) u >.%. .z u ' R E I c E ' ) E Q ",
"y P E L 0 E I o.O.[ V { ` ] ] ! ' I M V +.u.>.{ ) O.` &.` { J / } R q { ,.&.y f S I R d P I I R T T ",
"P ' [ L % j ( o.o.R D O.) ] W ! ! Y P L u t x { G j a a f l j n F F 6 p g V y Q E I F c Y R Y Y T s ",
"E E [ ^ t @ A ~ J A O.O.} ! V Y L C I I & & > q t t y y u y M g s w y g y y w C I R w P Y R ^ R m z ",
"T E #.) c V F l u { O._ R z Y E B d P F u g m g V V m M w I ;.-.X.;.X.;...E g P Y I 2 I R / ^ z x K ",
"#.%.` g ;.;.$.d.X.R R U B a N F S F B V c V V C m V m V I ;...;.-.1.| ..;.| > V I d - y y L Y 6 ^ +.",
"e.q.:.P y.:.5.-.] ) I z B u q x x n z f w F L L ) I I L E ;.-.:.1...W } | E g Q 3.3.y.q.) E 4.3.a.y.",
"2.3.y.'  ...L | ' P M M l M F A B A B z 2 I Y I I / / I I ] ....1.-.' X.| C g C ' -.:.;. .' j.p.y.y.",
"1.5.y.| d ..; 4 d A M H H L G G A n A d : / ) R E / ) I E R Q ' ..-.| Y V c y V T #.T  .] ' s.3.y.3.",
";.:.-.! 0 V 0 # < 5 M K F L A B A B A q 6 ` E I I I / ` _ ) L P ! }  .W Y u f V #.f.I L Q ' ;.] ;.;.",
"-.-.....w s d 0 ; $ y H I I / I F T  .&.I F E I I I I ) ^ R A B  . .>.,.U u g g R 8.R Y ] | | ' ....",
"-.! ] R c Y |  .[ ' [ [ [ [ [ $.&.;.;.$.I - y > 9 c L M L F V m &.9.u.u.N y z f R R P Y E ] | | | ] ",
"! ] T D z /  .[ [ [ [ $.[ ..&.q.$.&.$. .S $ $ 5 ) / ' [ ;.:.y.q.q.2.&.N u f z 3 { R C P E E E ] | ] ",
"P T R F x z ) ' / ' ) $.[ / ' ..3.$.) I 0 < p b H / [ ..;.:.3.3.y.p.k.l.d.R f 4 B *.E C Y T T E ] ' ",
"c N B B 0 a ) [ / ) ) / / / ) [ ..[ ) l j / ^ H K ~ ` ..$.$.:.3.4.y.p.4.s.M w 0 s n A R B g R G z 8 ",
") R K F S y R ) ' ) ' ' ) ' ' #.#.#.` k n ^ ~ ^ ^ ) [ ..-.$.-.:.3.4.4.4.e.) Q ..y.p.y.t ;.3.4.3.&.] ",
"I S F p 2 2 R / ) ` ` ` ) o.=.0.9.@.*.a Z ^ K ^ ^ ^ ) &.3.$.$.-.3.3.4.<.=.I y.5.4.3.y.V 4.| W ] ' E ",
"P D G , @ - ~ #.,.r.6.#.o.` *.o.G e 7 7 A U U K K ^ ^ / ..` [ [ ;.3.1.&.%.V y.5.| ..;.;.X.| ' ] W E ",
"F D l @ o . = 8 i i i r 4 5 e r 1 1 * - j H ( ` ^ ^ ^ R ) ^ ) _ #. .&.&.#.m -...! ] ..] ] ..R K K F ",
"D f t &. .; ; ; ; ; % % ; ; & + y a w y d z ` U U ^ { ( K F ^  .+. .+.,.4 z Q ' ] ! ..| ] ] Y H D A ",
"d E p.d.E m V z z m m s d s 0 4 2 M V y < j m n A ^ { ~ i F ` ` ) ` ` G @ a ' ' ] Y / E M T R K K D ",
"[ ..3.k.V L V m L P C L T I y S -.[ -.| / ) -.[ ` F t t G ` { +.=.+.x = # a R ' K F I ~ b A G J N c ",
") z I s.l F S z M Y R R W E y L :.:.5.:.:.y.d.3... .I &.) A H G G A 2   - t l ^ U x x 2 1 1 7 q F / ",
"I I E I y M I E P I P L T V : S -.:.-.:.p.y.y.:.$.^ K #.*.q.s.:.p.k.k.c 6 y 5 n A k k k D ( n s ^ / ",
"S Y I E l S I I B m m g g w y M ] -.| :.3.:.q...) U ~ 6.#.:.:.:.4.y.p.3.;.) 5 r >.>.,.i.a.2.,.Y B Y ",
"S I E =.n G K l B F L I T V w m ] -. .-. .' $.) / ^ ^ 8.>.:.;.5.y.4.3.4.2.) a 8 f.9.9.#.} #.} >.F c ",
"B P K a A n x A K I H G I L * y ) /  . ./ R / I x r A r.8.6.*.2.y.2.;.;./ R p 8 >.,.,.W W Y C U W c ",
"F b 0 ; n A A A K I G A S I ; < U $.) ) / ~ I ~ R A 8 _ u.=.0.t.e.7.=.[ R #.p t e.>.W ' W Y Y } W Y ",
"M 2 9 y n n l p h M M n S I d < j ) 7.%.) ^ ^ ^ ^ ^ c a g.r.*.7.,.,.+.U ( o.e 7 C >.,.,.' Y E E E R ",
"m m w > B S / $.y.y.$.) s I I < j j +.=.=.{ o.*.#.K j p >.u.=.6.*.*.+._ ~ ~ 1 * 2 d >.9.#.) >.7.,.} ",
"c Y c g ;.3.y.d.y.p.;.[ 0 g m 4 p a l ^ *.#._ ` *.U v h A 6.+.>.*.` ( n ~ G X * < i i i h j j ~ ^ u ",
"F Y P ; X.3.y.4.y.;...$.E I V f 0 a p 8 5 x / [ / B 8 r t b A n K v e @ v s r n H B I R I r 7 < 6 c ",
"F Y } 9 X.;.3.;.5.-./ ;.[ E I : y 9 s d M I z ; d j n y 6 5 5 r r 0 n S -.[ :.y.h.y.a.y.s.) s s S I ",
"B Y P g  ...] ] | &.| | ) ' y I Q E ) I I ] 9 P s.p.3.3.3.:.....A d ) $.-. .:.y.e.y.:.3.:./ B c Y R ",
"F F a u W [ .... .W F ) / F g W T T E / ' M 9 ' y.:.:.:.:.-.[ [ z a ~ $.[ ) ) :.&.&.o.$.:.:.H c Y R ",
"U Y y q R ) } } W ) ) / S T E L I E T E P s M :.:.-.-...] ' R R t h h _ ` #.o.o._ U ` [ [ ` U y F Y ",
"U U y F K _ { } R ^ ( R C W ! P P E L C V w ..:.:.-.' / ' ) ` ) t p - < i Z A v n ~ ~ o.o.l r 3 c / ",
"u Y f R ( _ { _ _ ( R m E Y } P I E C L V ] -...-.] ) ) ) o.o.[ $.q.$.s < 6 e , , 1 l Z j 3 ; < V x ",
"c c 4 U O.O.O.` _ F f L E P ! ! ! E P P m P E E I ` ` ` _ ^ ( ^ { #.<.<.l } } X._ &.&. .U ^ A F M A ",
"C 0 % C f x p f N f W W E P W E P I P P s V I I I I ) ` B H ^ ( _ [ X.E l ( } } I $.&.,.2.,.{ O.x F ",
"p 4 s 3.4.<.<.<.q.X.Y B P P W P C P I T 0 9 S ) ^ z z B b B I ) ` ) { B _ { ) } E $.;.2.2.%.9.6.K S ",
"d > f ,.4.p.4.<.;.&.&.X.m w s g d V V m 3 3 = < 4 S P P / I P P R E ( 8 +.} X.} [ $.&.2.,.&.9.{ A F ",
"C y q 8.| <.<.X.<.,.| ,.| -.<.4.q.:.;./ P j w w w s V P M V B M K z O p >.} } ..X.X.| ,.2.&.,.( S L ",
"U C > r.,.| | ,.] | <.| <.,.-.,.;.$.*.z L L V V M V L L ' L | -.<.,.f i ( r.,.X.X.X.X.,.&.X.X.) V I ",
"n c 1 r.,.,.,.W W ,.,.<.<.X.<.X.&.=.:.d L L V L V V P / | ' ;.4.y.3.t r e U 2.X.,.| X.X.,.,.8.#.d S ",
"o X X U 2.,.,.,.| | ..,.X.<.,.X.w.u.I d L L I P L M L I M S -.;.<.X.2 - e e p q g C  .! g l B C 9 ; ",
"c u = 8 #.7.7.u.7.+.7.8.8.,.,.,.8.@.t f Y ! ! E Y Y P B s ' 3.;.;.;.Y ) R N F f ' ) ;.-.$.E / I ' P ",
"C 0 q - 4 t b { t q f r g U { [ D c > O B } } W Y Y R V T -.4.:...&.F  .} } W P <...' ' ' ......-.-."
};
