/* XPM */
static char *_9036_a679284650a788f6a2ad8097ab84e5624dc7a9101b7ed62d8c1a766077cb992d[] = {
/* columns rows colors chars-per-pixel */
"100 100 81 1 ",
"  c #07040A",
". c #0A060B",
"X c #0D090E",
"o c #110C0F",
"O c #16100F",
"+ c #0F0C10",
"@ c #120E12",
"# c #151116",
"$ c #191316",
"% c #161419",
"& c #1A161A",
"* c #17181C",
"= c #1D191D",
"- c #221B1D",
"; c #27201F",
": c #1E1C21",
"> c #211E22",
", c #281F20",
"< c #1E2024",
"1 c #232126",
"2 c #2A2324",
"3 c #25252A",
"4 c #29262B",
"5 c #27292D",
"6 c #2A292E",
"7 c #302727",
"8 c #312827",
"9 c #332B2C",
"0 c #382E2D",
"q c #39302E",
"w c #262A31",
"e c #2D2D32",
"r c #312E33",
"t c #2E3035",
"y c #2F3239",
"u c #313236",
"i c #3B3333",
"p c #34353A",
"a c #3A373B",
"s c #36393E",
"d c #393A3E",
"f c #413736",
"g c #423837",
"h c #403738",
"j c #433B3C",
"k c #493E3F",
"l c #4B413F",
"z c #363B41",
"x c #3B3D42",
"c c #3A3F48",
"v c #423E41",
"b c #3E4145",
"n c #3D444B",
"m c #3F494F",
"M c #3E4650",
"N c #3E4A51",
"B c #404246",
"V c #4C4343",
"C c #42454A",
"Z c #4B4549",
"A c #44494D",
"S c #504443",
"D c #524A4B",
"F c #404751",
"G c #434B52",
"H c #494E52",
"J c #404F58",
"K c #574F50",
"L c #475057",
"P c #4B5155",
"I c #45525A",
"U c #4B545B",
"Y c #4A585F",
"T c #475760",
"R c #4D5B63",
"E c #4E616D",
"W c #51656C",
"Q c #576D76",
"! c #5A767F",
"~ c #656970",
"^ c #708F98",
/* pixels */
"3*XX+*=<13w1%wxxxzzszxspxxxxbe#*2tasbBBBCCBx-eCnxsGCbCbbbbxsesxxdpququuqt6stpppssspptOftpuue1#@@1e66",
"Rz#@*<zn3*:*3ssssssssxssxxbxd=#2spsdBBCBvBBBp@*bCCCCbCbbbbssp6pxbxxputeueuppsssqsqqtt;gqe6122$#$&=@b",
"Mn3*:Nnmbp%@tsssssssppesxxxs;5dbbxxlBBCCCCGup1.:bbCCBbdbbbbpti6xdddddpquqpxpssxspstt;tfq2&#-1$#@3:yJ",
"nnnnnnbnbss#tszszzzssttpxxs3$PPAxdxxbVCCCAb66>+#pbCABuu66212;isdpupddxssspfpupsxttsq<58q7@O&&$os^RFF",
"Mnnnnnnnnbm*tsssssbsspupsst*5CAABxdvdbnBCHe66%@+*6>&#&==--=;iudsqepsddddpuqttutt8tsu58990=$&&&*E!IMn",
"ncznznnnnnn:tpssssspuy<pst;$tbbHCvbxlxZCCG3ww%@%e6>14euiast244u6ertpuussuuttuuqt5tp558q98---&#*NQJMM",
"yypnnnnMnny*5sssspst3tO*****qbAAACCBBbKBxpw46>XbHCbxxdddssp64=tr9eue66uaqt99qtutt9t;;O;87=-&$X#*wNIG",
"bznMMMMnne:*<sssssy5tbp<***;esAAAACCCBDbae433&+&3sCCBdddssaa412ueeu9e666tpttt5t85<*X;;O*$#$&=&sR3*nJ",
"nncMMMNNy**&*3sye5tppppu1#=1eaBCABxCBBVxBbte3&HHAzepbddddappq6;euruur6euu6u1**O*-O*OO;O*OO**==1JJe:u",
"3nMMMFJz*@*:=@#&5uyupppp6:$>epxCCCCvbBjdBBte3CJACbbtdxddsupuuue21>>>113pdu=#OOO<;t555<5<O*5<#=&bYIz%",
":#:wwt3X*yccp=++6uupppupe1@&ruxBCCbxBBdibb*:UCACCbCCssppiauueqeee6664-X.o#*##=35sxbbxxbx<es<@*eJFLJG",
"Nc:@%%:znnnmmw::&5utyppu6:@>4rpxvxCxddd8us:bCCAAFCCCCCCsttuassee641$@=ep#$=pbptpuxbxxbxbs3<O*1NGFFFG",
"MNF@zccccnnMmne:=@5uuuut6#X2*eeuzxbexxp28=ABBCzxCCCCnbbBbuedeuu6=*<5yzzs$@bGbbxxxsssxsxxxx3O<eNNFMMM",
"nzn<ccMMcnMnnnzp#XX4reut<..1o=3euxx9ad6224dxxbppxCCbsusxdd3*sd6$5yussss5o@zCHbbbxxbbsbxss5<**uNmMMMn",
"nzItyMMMnznnnMn3X##X>re<X.#--$1errae9p6784spuudxxxxcuueudu5#*==ssssszss3*=bbbmbxxxxbxxs5**;;sHNmMMMM",
"zmHF:MNNMc3:33wu:$*+X#%$$X.=2$$4>ruu46>296puupraadzxxuup6:=142psszsszszp-1bsxxxptsbbst<<<;<*LmmmMMnc",
"nMJC@yww55yszbbz5**X.O<sx5X$;Oo;rruu,$@$2eupaupupzzapru:>ese65spsdsssssz<<bxzxde6ew63>:>&@%%zMnMMnzz",
"HIY<X<pywssssbzsu**XX<ppxs<*;*-q79ry$->.-e44upusu>>>>=&txxxe4pusssszsspx==esss3e6>>:>>6e&X%%+cMnMywn",
":<:+%pzssspyszzss<#Owsyte25<X=;-->r6$>>#@46=6uuy>>33r14zxxx5ppsszdzsssy<;==;1>>szxsxncxxs>%@ *zce%+#",
"3<3<*:tsssspyssssx5*NYpt335-.$-O&-r>>>>&&46&34<:>36yp>pzxxz3spzzdzssst<e1<;$-=*1>>>>33>3wew+@%%*%:33",
"eppet<*tssssppusxbx=TWstt66**=::%&>3>>>:&w3-#<wyyyput>sudxt1xsddzzds35sssye*##..@%%%:>>>>>&+&&@>esye",
"pssssz=*tssysssuxxy<Nzt<**O*==:->==&:>>>#=@>5yyyyuuu34zuxt*<nnxdsdp#yGbsssp*uttpzp6:@%&$&&@@&&:rwtps",
"spssuxx::tspypuss53:.*5553:*$O*$&=-%+%$$@#-6ttyzpypt:4yxx;$o=tppu6*pnnzsss>tsppppt63:6pxCxp&@,3a6pps",
"ypstexbx5:typssspe3**xmmNHbmbse*zbnb>$%&-->><<:*:%>wy,443=*;3=<;2*psxssss5<bpppt:%:tcxzavaZe>04auuyy",
"yss6usxbbt-O=1==<*$$1bbnnzbAGAsuYHCFUPu&++*:33<<ezcnC49&=4-dAdb1a=urvassu<sppp;X@ybxbsuuujau779rtyut",
"tpp4epupdbzp1=***==$2dpssbnGAmz<GxbCGACCy:ypzcbbbbbxx4rud42uAbz;V9ruepss35spt=<5cnbxzxut6i4622rutapu",
"uuu4ee2ussuu6*:3;$;*tspasbbAAAmePCbAbups<3pyzzbbbbca4r9sBbx66bs1g9pszsst*spt*<Cbzxbbsdpu4l4229e4eppu",
"utt;32espsue<3ee5#;4pssasxmAAbm3HCGHssbb*3pzbbbbxca49r4dbbbd246sdsssssu#tp5#*xbpupxxsbpu9q4=29e=*4tp",
";<=;-=13tu5=uteet*-uddzsxbbbmbA5xxxssbbC&:znxnbbzFu494dsdBbbs;=1pduusu#et>XOpduttqudssuu991-4te=#X*>",
"ut=*$;133=O5eeee1#*ssxdsxbxACmCu3BxxbbbC*=%eywwe3<>eusBBBdxbb6-=1>11:&$**#Oeppute6epatut98$;4t3=pCbz",
"psupszdspud5*=32**-usdxzxxxbbbCs:axxbbx1*4pyzzrrzB3zBBBBBBbxdd16zde:*&$&$1<<35e659uuueue92-;*1-2xpss",
"sssbxxxxdpsAu#**==-tsdsxxsbbbbbt=ezxCe%@txGCCbCHACr4dBBBBbx6911sxdzsu3:*=tt52==-*<eueeuu9;--X#1tssss",
"ssxxxxxxxxsdCd*O@=>1uaazsxzvxzc3%>rc:#>>uvFCCxxAvzCvexvvcz,66>>zddssppup%ttee3:>>==>&6er6;--o-5pzzzz",
"ssxxxxxxsdxxbmb<@-=&4psupdxzaaz>%&:@%>4>zCCCCvzCvnCx6,444>errvvzdssspppu*2eeewwrrye3$:ee4;-O.#psizzz",
"xssxxsppspppdxbt@=>=:3>=4dazpya:&%.#>>4yzvCCCvsvCCvx4644>rcxzvzzussppupu:%*::&16euur:@3:$-$#OXsszzzz",
"sppsssxxzxxppudu@=:>=&&$>dxzary%$+%+>>rHvxCCvzxvBbba4,,4>>xxzzzasupsuuty@+++@%16rere%%@@O-$$.<bdvzzr",
"psptppdxzxspupsp&==->>=#:suszr:@@>e&&>vHCxvCxCvxxBp,4yxpxe4xayzasppputt3#ee5:+#:6>>:##@%&$OX3xsurruy",
"ppusuppxxsssuut*@====*&$@*6e>%@@%er>>zFvCvvzvCCzxr3yxvaaaz>zxaazupppuut#*ettt5*X#%&%$%%>=#o2zpurzruz",
"ttqsqutusxu;*:#Xwbpxb:euCx>@#$@:ery>4vvvxxxrvACzeyvvxxxxza>uxzapppputt3%&ttteew3++$#@@@oX#3dpppyupzu",
"t89t696qu5<<;*OtFxxxxbsddzb:@&*6rw,>zzzcvxvzaCvxvxxxaxxaxu>zxpzpspuute@*:ttee5ete:.. .%>uspppprpppau",
";885989233;<<tbxbbbCbxxsppvxX@:errcvauupxdBBzvzvbvxxBr6r6#ezxzypuuuue3#3#teew6ee6>>@X:eyyayapprpppur",
"O8<<8;;:;*esbbCCbBCCCbsappzr>&&rypxpauupdaBvCvvxxBxvd43:+:4yapauuspew1=4+5e6e6wee6:%#@3eyypypp44,>&@",
"*;OOo$*-*8sbbbAAPPAAACbx4yexxu>eaypyuuppaadxcxCxBxvxa4&wzpar4zpprppe6=&* X65e66ee3%t4e:>rwupu%@@&>:>",
"t;tzsp6:*ss5<<p52<<6uut6>4vxas:3uuuappazapzvvcvvbvxzr@3uayzyy>ypepu63#X&5@.#*1333%py4eye34e4@@@@zzzz",
"spsppxCbsbmmAbbbspxCbxs4axxzdy%&>6yapzaasdvvbbvcxxde%3pppapzar>6>sr6>@Xyt<+#&&=:&trrwereee>+++$yzyyp",
"ssssssb5sxxxxxbbbePbbBxtzaxvdr34:#>werszdxxCvbcvxr=@3uuuyppppr4%&6w>&#:tee*#%%X@3w66w6rrryy%@>yppppz",
"ssxxssx*bxxxbxxxb5Csadxupxxxvsrur:$>>>4uap4>pzzu3@@>rrryrupayre%@&&==&eteeeX@@X:66eer>rrrrp>zzuuppza",
"sssxsxx*xxzxdxxddedppddsexxvxasae%@#:>:>>>=&&:%&&o&&44errrruyr>#$$-=&6tytet:@@@3ee6ere6rrre:yrrypppp",
"ssxypxt1xzxsxsupsttddxxxduaxxzxa:46%+@=rzz=w>#%:,-@-,@=44>,>46=&*:%@3ututttt1#+err66rr6err>@:66eurrp",
"sxs5zs<szzxxxsppss:pxzdxxdudzad4zvvz:vw&1czczzw>>9&i9>=&@@@@@&&$ep3*3ytpppte31*3w4r46rrer6:$@%>4reer",
"t5<tmu26udxxpu5txx>edddddBduua4rzzvr3czvrzcvz6rr34i-&,>3zzzzz@$4ppp1:tuppptwe64:446446464>=@&=-4w4es",
"<tu<s1y6edds<<;<px>tpeesdx6>>:-3rrzr@zzvzzvvcrerzxa4>,>rzzrzzr@zzpp3:ppppueuuer=>44>>:>>>%&@&>=4eeue",
"32;<=tdssds3:5u54u>zy6ryd6##1urpzzzr&zzvrrvccczccccr>>=4zczzzz4zzsu3:3usutuppuu6&&@&#$$#%>6>#&@&rre1",
"<;=OXo=eydp3psxxrr:uzr>>>&:pddxxvvvvzz44>cvccvvccxvz>$>ezzzzzr=6usu3>>4ruupppuuu=&&@#>>yrr634@&#->->",
"O**oXO*=<<<3ppusury>$:>>:=3epzxvvvcccvr>4zccccczzzzzr==>zzzr3>44ypepue3>14yupuuu=@@&rruuuyewr$-&@#&&",
"O*<55<$*==<;;55ezazaye>##14epadxzzvzvvv4zzzyrzzzpczzz&,>4,>3rzcwuupssspwt52ttuuu&&@=uuuuuupuu27=-&#o",
"&rbvxp>XOo=<<3::yzzavxz4@%4rrizzrzzzvzv4xxvza4wr3cxpp>8>,3rzvcxr3epdsaaepe33rpp=&=#,zrrzuuuuef--i#>:",
"zxzppe>#o#t26sstrzzzzzcvz@&344249rrz44r4xxxxxrr::4w3>#2$4vazcxxz16esspruruyey4$&-=$>rrhrpuurif-fo3ua",
"ppppprv,O*utusdprrrrape4=>&%&@$&=>>>>444xxazazur>:&:>&&&>rzzvzzr>-4ussdaerr4>>>$&&2-r,vrppe4V00u4eup",
"rppiprj-XX=5tpsdzcvz>>>>1rrrrr42>==&=>&@>333>>>>=:=@+%%#%&4rrr>,1-=-2rse3>>,>$=$-$,@#$v>rpr4k0ierrup",
"ppiru9io#e6##:escvc6&@>34z4zzzrz9zzz@@1>@%@+%>&%>6pnHUHZHAy6>4,>4eu42441&&1wyr4%---$r=v7,ru>qg,4uuup",
"uruurr9+rpue:>1>>:=@#:>3wzrrizz4zz4=&4zzrpsu>&exvCCCACxCCCHGGAx49bBu424tadddazza,$$@00g7f9>$09,3uuuu",
"rere969&uppr433344>=&>:&3rzrzrzz41=1rzz4dzxzseAvxvCCCxxFCCCvCCCpeCbBu-uxdssxzazcve&$>0f,f-##8434rrru",
"rrr662-6uupue4446w44>@>43r44rzr1>4rrzrrzzaaxrsBxcxaxcvACvCCCCCCZsCBbe-uxbddszaxvyy6>@0,$0--$@->4446r",
"rri66,>rwrryrrr4666466yy4uux&&%:zpaazpryzzazxxdxBBxudBBBCCACCCCAbABb646bxxxssx3;ypp6:-$@;&=-$o>44r4r",
"6,4,,,>4wer4eryre666e66yrrezz:6zippapappiuaxbxpBbvBxpBxCCCCCCAAPxdACx4;Bxxsss;#up6$#%#&$@@$-==&3>27r",
"4>,>->4rrrew6rrr6r6rrrrrruerF:rpppauzpr6zxvxxaxxvvbBpxdBCACCAHPPxuHAt**4;<5e<*$31<2wupdpau61&&-$-444",
"e>,-->6rrr6rrrrw>eryreyyeuuuz,6prprzpa,zvxxareBvbbbBa3bCCCCbbbbsru6$=$1oOO*5pzxbbbsbbCBBBCCxp@$$$-44",
"r,----4re4errer66w6r46ryu4pru43yurzar4rzvxxuiKvxxBxBCt:66656esbns<*yCWYbbs*psppeppppsaauyrrrre&@,r&&",
"-OOOO>4664re6ererrw>:>6ru3rpa6>rr6rr4rzixvgpVxxxvvxxdbCCGFCnpe3**3snbCsbxt<sssspteauuturrrrr944>h,--",
"&oOOo:666er46e46>>&&#&>>r6eyar$erzr4izizaaShDxxjddxxCAACxCb1&&$5zxxbbbpbxe;sssppt5uu6uuurrr96i4r4@=-",
"-$.@@%,6e>>>:&==>&#X.:6rwpprpy%66r3rizrzayiiivxxvdBbe4663>%%#wmCbbbsbbbtx3pspssqp5uue6uurrr6rj44hv#=",
"$%@%**#*2&##=&&##@*&%*euupsuyy&3434rzzzvvz=h9>>-=@%@:>>3@%%>CCCCmsbbbbxxe<xsssssz4zrrw4zrrr6ih>rv,4#",
">%@@$$#o#@@@@#:3666:&+36eruspa:%zr66izz6==49rzvzs>:>xCHP3%&3nmnbbtxbbbdx3<sdsspsz66rw44rrr644v,h6>4>",
"w4@@X. X%&o#3eeeeeew&@&>>1esvu=@>44rr4>&#42>zzr66::uvAZFc+@yCCCnmbxbbdss*esssspp6rrw6646rrr42i224>>>",
"ws&@#.X1>>4w6weeetyu3@.#:>>1:@+$&===&=@@144zrrz6>&=dxBAZA3+tCCnbbbbbxsp*<xssspser44rr4w446440i9->,e>",
"rs3+#@<64436666eetttu*.*:%&&:>>:=>>:&&&3zrzrrzwz:%:zvxvCZC>:zxbnbbbbbs3*sssssspeww4w31444444097=>,>6",
"ee4.@@ww3w66366wetuyuw@tptpzwyrywzzwrwrzrrr4>>zw>%%CvxxvCAC>+@:ybmxtz<*tpssssputr43433w4>>44290@>74e",
"63@+X:eew2534666tyuupp#tssszunyzzzzrz4rrryr>:zzwy::HCxxzxCx:wcy:<tss*Xt3pxzpssttrr6>4664>3444,7$>,6e",
"6:@$*3eee66w6weeeuuuyp+eszzzspMTvzrzwwwyrr>=zwwww:%nZxvaax,6cznMNmp*+#*<5ypzspttwrr664z63>>=$&-->eee",
":;Ooeteet666e6eeuuuapp*3szzdsypmUm6>:erey4%rr3w3w<:>r6>:=iisyzcMnnnby5:*@@%weets64z46e3>%&%%>>4>>yrw",
"*:+<teee6tt56etttte6pz1<zsdzxstpszp:>zye6%6wwez3yy:@>>%4tajywznnnnbbns3*3@ +%>>>zr646w>#$%:36ww6wrw>",
"*;Oeeeeettut6yypypsste:*bszszzspueu33sew>:w6wewwyww%>$zJCmnccnnMnbbnny5sxcp>@@%=>:>3>@#>weyyywryyy>:",
":9<etetttyut6puppttept#=smbbxsuuppuw:wau:>64ww3wywe,>@zFbsznMMMMznmmzysdzpzpzpw:%@=@.%zryzyrttpyyz>:",
"tu5ettttppueeupputt5:#3p3xmxzstpyw33+94r%>4333:3ww44>@y>:>>1Mczyynnnwzzspypyuuteww3&+%rwyyyypyyyz33w",
"pu;et5tspuutuppuue6=epps3embzse*%>31#0>X#34>343:33>3>.::14:33pczyNnzwsddzuuuueeee44=##>yzpyrzyyzy:zy",
"ppytpttppppyuppuuu25sspts*33;<<:wwee4i>.&>44344>3>>>> =>>>3Gzzncznnwszssspttte63>wr>#&&6yyyzzyzw:ryz",
"sptpptppuuuuruuuu1tspspud*:<<35treee4h,,4:>w3333>>>3>%:+@+:nMMnnnnNwssssssutee>:>ez>&=&>eyyyyzr>epyp",
"pssyyysye5<<36tt:exsssueu*ttttwtreww>020>%::1>11>>>>3Gx&O#o<tnnnnzytytpszpytte>>4rp=&-&&3yzyrr:wyyyp",
"ssyzwtp5==32522*1xdsppud<*uuyte5ww3r4,77>:%$**>13>>pGCCAs=X.+#3zz<<zywypzpyyeew44ep=&&&%@:3yw6>yziua",
"sszye<<<3et335153:3uauet*<6eteww3>>i>>2-:>::=>1=>wLHCCvbBCxu:**=*<zbpewtpppeee4466e=$-3trw>%%+3y643p",
"ssybp333pssp52=tsp>*l6*-46655e5544>i>#$#::=:==#-FHHCbbCbbbbbbt%@ <<zstt<6uuee6we33:@=4ettyy:#&ee44ys",
"ssssu:-5yusssd3&=:>ij$29265355534397#&#+$&&&*#$~PbbBCBBbblbddds2+*6utyyewutew3:#%>33>6etypyr%>ee>0yp",
"pssse:*ttbszzzxxu:=hi$425553<3334>i,&&&@:>&>*=RAABbbxxbBbbbzxss4+&%&3<<<33:.X&146663>4ueuuup>:,679rp",
"upppt3:sRLdzbzxse4=2i;-<5223=1<<>>f&&&&-&=>>1CHABCBCBdbbbbbbdd4*ep4&=$#OX@@X@>3334e3->eeeruuy:>>7>6p",
"stpp55mWWbzzxbx444->97-=3<13<<<->-2$&&>>>>>>sHZABCABBBbbxlxxde=upu6--42*&1>ue16u34e>>=we4ryyyr,,&*tp",
"suut$nLGGnzbbnd1=i2=;8;*36=$%*::&:2&#$:66--:PGAABBBBBBBdudxpt=6suqur1-14664Bdsdspte5=$2p6tuuue$>$g6p",
"5e<:<tmNGNmbsz3$=2je6;;2bnbzp5#&:#,-=sbHHp#:bCCCCBxdddsuu644=1baauurue696udduuuuayet2#ustuuur4==i2->",
"t5e53<pbmmmmp3#1ubpssu2txxxbb2XX@#207ddBBb=#AAddCCbubCnBBdpp1ubdui9uqu946uduuuuuuituuXDuuuuuue>$h116",
"tet;**33tpt<*Xezdbdsdxuyxxxbb<@$#4uiiBBBBBd:tABBCBuAbxbBBBBd2xxxauuuruuru6duuuyidu6utXV6uuuuu4&#6eue"
};
