/* XPM */
static char *b78471f24cfb468abe1619517cf8e00f9tY875UOjRw1dfQd[] = {
/* columns rows colors chars-per-pixel */
"100 100 5 1 ",
"  c black",
". c #7B0077",
"X c #FAFF08",
"o c #FF00FE",
"O c white",
/* pixels */
"     X                      X       X                  X                          X      X          ",
"... ooXoooooooooo ...........X oooooXoooooo ............XoooXoooooXoo ............ XooooooXo .......",
".. oooXooooooooo ............Xoooooooooooo ............ XooooXooooXo .........XX. oXooooooooX.......",
".. oooooXXXooooo ............ XoooXXXooooX ............ ooooXXXooooo ...........XXoooXXXooo X.......",
"   XX oXXXXXooo XX             ooXXXXXoooo ...........XooooXXXXXoooo               oXXXXXoo ........",
" XXoo  XXXXX    ..X......... o   XXXXXooo ...........X ooooXXXXX     ........... o  XXXXX   ....... ",
". oooo XXOOX oo ............ ooooXXOOX    ............ ooo XXOOX oo X........... oooXXOOXoo X  ...  ",
". oooooXXXXXooo ............ ooooXXXXXoo      .......   X oXXXXXooXX..........XXXoooXXXXXoXX..   . .",
". ooooooXXXoooo ............ oXoooXXXoooo ...         oXooooXXXoooo ............ ooooXXXoo .....   .",
" oXXoooooooooo .XX......... oXoooooooooo ............ oXoooooooooo ............ oooooooooo .........",
" X      X   X     X         X          XX             X                           X      XX         ",
" .......X...X. oooooooooooo ....X....... XXoooooooooo ....X.....XX oooooooooooo .X........ oooooooo ",
" .......X...X. oooooooooooo ....X.XX.... oooooooooooo ....X..X....Xoooooooooooo ....X.X... oooooooo ",
" .......X....X oooooooooooo ....X...X... oooooooooooo ....X..X.... oooooooooooo ....X.X... oooooooo ",
" .......X....X oooooooooooo ....X....... oooooooooooo ........X... oooooooooooo ....X..X.. oooooooo ",
" .......X..... oooooooooooo ............ oooooooooooo ........X... oooooooooooo ....X..X.. oooooooo ",
" .......X..... oooooooooooo ............ oooooooooooo ............ oooooooooooo ....X..... oooooooo ",
" .......X..... ooXooooooooo ............ oooooooooooo ............ oooooooooooo .......... oooooooo ",
" ............. ooXooooooooo ............ oooooooooooo ............ oooooooooooo .......... oooooooo ",
" ............. oooXoooooooo ............ oooooooooooo ............ oooooooooooo .......... oooooooo ",
" ............. oooooooooooo ............ oooooooooooo ............ oooooooooooo .......... oooooooo ",
" ............. oooooooooooo ............ ooooo  ooooo ............ oooooooooooo .......... oooooooo ",
" ............. oooooooooooo ............ ooooo  ooooo ............ oooooooooooo .......... oooooooo ",
" ............. oooooooooooo ............ ooooo  ooooo ............ oooooooooooo .......... oooooooo ",
" ............. oooooooooooo ............ ooooo  ooooo ............ oooooooooooo .......... oooooooo ",
" ............. oooooooooooo ............ oooooooooooo ............ oooooooooooo .......... oooooooo ",
" ............. oooooooooooo ............ oooooooooooo ............ oooooooooooo .......... oooooooo ",
" ............. oooooooooooo ............ oooo    oooo ............ oooooooooooo .......... oooooooo ",
" ............. oooooooooooo ............ oooooooooooo ............ oooooooooooo .......... oooooooo ",
" ............. oooooooooooo ............ oooooooooooo ............ oooooooooooo .......... oooooooo ",
" ............. oooooooooooo ............ oo        oo ............ oooooooooooo .......... oooooooo ",
" ............. oooooooooooo ............ oooooooooooo ............ oooooooooooo .......... oooooooo ",
" ............. oooooooooooo ............ oooooooooooo ............ oooooooooooo .......... oooooooo ",
" ............. oooooooooooo ............              ............ oooooooooooo .......... oooooooo ",
" ............. oooooooooooo ............ oooooooooooo ............ oooooooooooo .......... oooooooo ",
" ............. oooooooooooo ............ oooooooooooo ............ oooooooooooo .......... oooooooo ",
" ............. oooooooooooo .......                        ....... oooooooooooo .......... oooooooo ",
" ............. oooooooooooo ............ oooooooooooo ............ oooooooooooo .......... oooooooo ",
" ............. oooooooooooo ............ oooooooooooo ............ oooooooooooo .......... oooooooo ",
" ............. oooooooooooo ...                                ... oooooooooooo .......... oooooooo ",
" ............. oooooooooooo ............ oooooooooooo ............ oooooooooooo .......... oooooooo ",
" ............. oooooooooooo ............ oooooooooooo ............ oooooooooooo .......... oooooooo ",
" ............. oooooooooooo ............ oooooooooooo ............ oooooooooooo .......... oooooooo ",
" ............. oooooooooooo                                        oooooooooooo .......... oooooooo ",
" ............. oooooooooooo ............ oooooooooooo ............ oooooooooooo .......... oooooooo ",
" ............. oooooooooooo ............ oooooooooooo ............ oooooooooooo .......... oooooooo ",
" ............. ooooooooo                                              ooooooooo .......... oooooooo ",
" ............. oooooooooooo ............ oooooooooooo ............ oooooooooooo .......... oooooooo ",
" ............. oooooooooooo ............ oooooooooooo ............ oooooooooooo .......... oooooooo ",
" ............. oooooooooooo ............ oooooooooooo ............ oooooooooooo .......... oooooooo ",
" ............. ooooo                                                      ooooo .......... oooooooo ",
" ............. oooooooooooo ............ oooooooooooo ............ oooooooooooo .......... oooooooo ",
" ............. oooooooooooo ............ oooooooooooo ............ oooooooooooo .......... oooooooo ",
" ............. oooooooooooo ............ oooooooooooo ............ oooooooooooo .......... oooooooo ",
" .............                                                                  .......... oooooooo ",
" ............. oooooooooooo ............ oooooooooooo ............ oooooooooooo .......... oooooooo ",
" ............. oooooooooooo ............ oooooooooooo ............ oooooooooooo .......... oooooooo ",
" ............. oooooooooooo ............ oooooooooooo ............ oooooooooooo .......... oooooooo ",
" ......                                                                                 .. oooooooo ",
" ............. oooooooooooo ............ oooooooooooo ............ oooooooooooo .......... oooooooo ",
" ............. oooooooooooo ............ oooooooooooo ............ oooooooooooo .......... oooooooo ",
" ............. oooooooooooo ............ oooooooooooo ............ oooooooooooo .......... oooooooo ",
"                                                                                                    ",
" ............. oooooooooooo ............ oooooooooooo ............ oooooooooooo .......... oooooooo ",
" ............. oooooooooooo ............ oooooooooooo ............ oooooooooooo .......... oooooooo ",
" ............. oooooooooooo ............ oooooooooooo ............ oooooooooooo .......... oooooooo ",
" ............. oooooooooooo ............ oooooooooooo ............ oooooooooooo .......... oooooooo ",
" ............. oooooooooooo ............ oooooooooooo ............ oooooooooooo .......... oooooooo ",
" ............. oooooooooooo ............ oooooooooooo ............ oooooooooooo .......... oooooooo ",
" ............. oooooooooooo ............ oooooooooooo ............ oooooooooooo .......... oooooooo ",
" ............. oooooooooooo ............ oooooooooooo ............ oooooooooooo .......... oooooooo ",
" ............. oooooooooooo ............ oooooooooooo ............ oooooooooooo .......... oooooooo ",
" ............. oooooooooooo ............ oooooooooooo ............ oooooooooooo .......... oooooooo ",
" ............. oooooooooooo ............ oooooooooooo ............ oooooooooooo .......... oooooooo ",
" ............. oooooooooooo ............ oooooooooooo ............ oooooooooooo .......... oooooooo ",
" ............. oooooooooooo ............ oooooooooooo ............ oooooooooooo .......... oooooooo ",
" ............. oooooooooooo ............ oooooooooooo ............ oooooooooooo .......... oooooooo ",
" ............. oooooooooooo ............ oooooooooooo ............ oooooooooooo .......... oooooooo ",
" ............. oooooooooooo ............ oooooooooooo ............ oooooooooooo .......... oooooooo ",
" ............. oooooooooooo ............ oooooooooooo ............ oooooooooooo .......... oooooooo ",
" ............. oooooooooooo ............ oooooooooooo ............ oooooooooooo .......... oooooooo ",
" ............. oooooooooooo ............ oooooooooooo ............ oooooooooooo .......... oooooooo ",
" ............. oooooooooooo ............ oooooooooooo ............ oooooooooooo .......... oooooooo ",
" ............. oooooooooooo ............ oooooooooooo ............ oooooooooooo .......... oooooooo ",
" ............. oooooooooooo ............ oooooooooooo ............ oooooooooooo .......... oooooooo ",
" ............. oooooooooooo ............ oooooooooooo ............ oooooooooooo .......... oooooooo ",
" ............. oooooooooooo ............ oooooooooooo ............ oooooooooooo .......... oooooooo ",
" ............. oooooooooooo ............ oooooooooooo ............ oooooooooooo .......... oooooooo ",
" ............. oooooooooooo ............ oooooooooooo ............ oooooooooooo .......... oooooooo ",
" ............. oooooooooooo ............ oooooooooooo ............ oooooooooooo .......... oooooooo ",
" ............. oooooooooooo ............ oooooooooooo ............ oooooooooooo .......... oooooooo ",
" ............. oooooooooooo ............ oooooooooooo ............ oooooooooooo .......... oooooooo ",
" ............. oooooooooooo ............ oooooooooooo ............ oooooooooooo .......... oooooooo ",
" ............. oooooooooooo ............ oooooooooooo ............ oooooooooooo .......... oooooooo ",
" ............. oooooooooooo ............ oooooooooooo ............ oooooooooooo .......... oooooooo ",
" ............. oooooooooooo ............ oooooooooooo ............ oooooooooooo .......... oooooooo ",
" ............. oooooooooooo ............ oooooooooooo ............ oooooooooooo .......... oooooooo ",
" ............. oooooooooooo ............ oooooooooooo ............ oooooooooooo .......... oooooooo ",
" ............. oooooooooooo ............ oooooooooooo ............ oooooooooooo .......... oooooooo ",
"                                                                                                    "
};
