/* XPM */
static char *bb63b30de330459d8805df8225d82307b8eQxVIM1UcPjyob[] = {
/* columns rows colors chars-per-pixel */
"100 100 5 1 ",
"  c black",
". c #7B0077",
"X c #FAFF08",
"o c #FF00FE",
"O c white",
/* pixels */
"     X                      X       X                  X                          X      X          ",
"... ooXoooooooooo ...........X oooooXoooooo ............XoooXoooooXoo ............ XooooooXo .......",
".. oooXooooooooo ............Xoooooooooooo ............ XooooXooooXo .........XX. oXooooooooX.......",
".. oooooXXXooooo ............ XoooXXXooooX ............ ooooXXXooooo ...........XXoooXXXooo X.......",
"   XX oXXXXXooo XX             ooXXXXXoooo ...........XooooXXXXXoooo               oXXXXXoo ........",
" XXoo  XXXXX    ..X......... o   XXXXXooo ...........X ooooXXXXX     ........... o  XXXXX   ....... ",
". oooo XXOOX oo ............ ooooXXOOX    ............ ooo XXOOX oo X........... oooXXOOXoo X  ...  ",
". oooooXXXXXooo ............ ooooXXXXXoo      .......   X oXXXXXooXX..........XXXoooXXXXXoXX..   . .",
". ooooooXXXoooo ............ oXoooXXXoooo ...         oXooooXXXoooo ............ ooooXXXoo .....   .",
" oXXoooooooooo .XX......... oXoooooooooo ............ oXoooooooooo ............ oooooooooo .........",
" X      X   X     X         X          XX             X                           X      XX         ",
"        X   X. oooooooooooo ....X....... XXoooooooooo ....X.....XX oooooooooooo .X........          ",
"        X   X. oooooooooooo ....X.XX.... oooooooooooo ....X..X....Xoooooooooooo ....X.X...          ",
"        X    X oooooooooooo ....X...X... oooooooooooo ....X..X.... oooooooooooo ....X.X...          ",
"        X    X oooooooooooo ....X....... oooooooooooo ........X... oooooooooooo ....X..X..          ",
"        X      oooooooooooo ............ oooooooooooo ........X... oooooooooooo ....X..X..          ",
"        X      oooooooooooo ............ oooooooooooo ............ oooooooooooo ....X.....          ",
"        X      ooXooooooooo ............ oooooooooooo ............ oooooooooooo ..........          ",
"               ooXooooooooo ............ oooooooooooo ............ oooooooooooo ..........          ",
"               oooXoooooooo ............ oooooooooooo ............ oooooooooooo ..........          ",
"               oooooooooooo ............ oooooooooooo ............ oooooooooooo ..........          ",
"               oooooooooooo ............ ooooo  ooooo ............ oooooooooooo ..........          ",
"               oooooooooooo ............ ooooo  ooooo ............ oooooooooooo ..........          ",
"               oooooooooooo ............ ooooo  ooooo ............ oooooooooooo ..........          ",
"               oooooooooooo ............ ooooo  ooooo ............ oooooooooooo ..........          ",
"               oooooooooooo ............ oooooooooooo ............ oooooooooooo ..........          ",
"               oooooooooooo ............ oooooooooooo ............ oooooooooooo ..........          ",
"               oooooooooooo ............ oooo    oooo ............ oooooooooooo ..........          ",
"               oooooooooooo ............ oooooooooooo ............ oooooooooooo ..........          ",
"               oooooooooooo ............ oooooooooooo ............ oooooooooooo ..........          ",
"               oooooooooooo ............ oo        oo ............ oooooooooooo ..........          ",
"               oooooooooooo ............ oooooooooooo ............ oooooooooooo ..........          ",
"               oooooooooooo ............ oooooooooooo ............ oooooooooooo ..........          ",
"               oooooooooooo ............              ............ oooooooooooo ..........          ",
"               oooooooooooo ............ oooooooooooo ............ oooooooooooo ..........          ",
"               oooooooooooo ............ oooooooooooo ............ oooooooooooo ..........          ",
"               oooooooooooo .......                        ....... oooooooooooo ..........          ",
"               oooooooooooo ............ oooooooooooo ............ oooooooooooo ..........          ",
"               oooooooooooo ............ oooooooooooo ............ oooooooooooo ..........          ",
"               oooooooooooo ...                                ... oooooooooooo ..........          ",
"               oooooooooooo ............ oooooooooooo ............ oooooooooooo ..........          ",
"               oooooooooooo ............ oooooooooooo ............ oooooooooooo ..........          ",
"               oooooooooooo ............ oooooooooooo ............ oooooooooooo ..........          ",
"               oooooooooooo                                        oooooooooooo ..........          ",
"               oooooooooooo ............ oooooooooooo ............ oooooooooooo ..........          ",
"               oooooooooooo ............ oooooooooooo ............ oooooooooooo ..........          ",
"               ooooooooo                                              ooooooooo ..........          ",
"               oooooooooooo ............ oooooooooooo ............ oooooooooooo ..........          ",
"               oooooooooooo ............ oooooooooooo ............ oooooooooooo ..........          ",
"               oooooooooooo ............ oooooooooooo ............ oooooooooooo ..........          ",
"               ooooo                                                      ooooo ..........          ",
"               oooooooooooo ............ oooooooooooo ............ oooooooooooo ..........          ",
"               oooooooooooo ............ oooooooooooo ............ oooooooooooo ..........          ",
"               oooooooooooo ............ oooooooooooo ............ oooooooooooo ..........          ",
"                                                                                ..........          ",
"               oooooooooooo ............ oooooooooooo ............ oooooooooooo ..........          ",
"               oooooooooooo ............ oooooooooooo ............ oooooooooooo ..........          ",
"               oooooooooooo ............ oooooooooooo ............ oooooooooooo ..........          ",
"                                                                                        ..          ",
"               oooooooooooo ............ oooooooooooo ............ oooooooooooo ..........          ",
"               oooooooooooo ............ oooooooooooo ............ oooooooooooo ..........          ",
"               oooooooooooo ............ oooooooooooo ............ oooooooooooo ..........          ",
"                                                                                                    ",
"               oooooooooooo ............ oooooooooooo ............ oooooooooooo ..........          ",
"               oooooooooooo ............ oooooooooooo ............ oooooooooooo ..........          ",
"               oooooooooooo ............ oooooooooooo ............ oooooooooooo ..........          ",
"               oooooooooooo ............ oooooooooooo ............ oooooooooooo ..........          ",
"               oooooooooooo ............ oooooooooooo ............ oooooooooooo ..........          ",
"               oooooooooooo ............ oooooooooooo ............ oooooooooooo ..........          ",
"               oooooooooooo ............ oooooooooooo ............ oooooooooooo ..........          ",
"               oooooooooooo ............ oooooooooooo ............ oooooooooooo ..........          ",
"               oooooooooooo ............ oooooooooooo ............ oooooooooooo ..........          ",
"               oooooooooooo ............ oooooooooooo ............ oooooooooooo ..........          ",
"               oooooooooooo ............ oooooooooooo ............ oooooooooooo ..........          ",
"               oooooooooooo ............ oooooooooooo ............ oooooooooooo ..........          ",
"               oooooooooooo ............ oooooooooooo ............ oooooooooooo ..........          ",
"               oooooooooooo ............ oooooooooooo ............ oooooooooooo ..........          ",
"               oooooooooooo ............ oooooooooooo ............ oooooooooooo ..........          ",
"               oooooooooooo ............ oooooooooooo ............ oooooooooooo ..........          ",
"               oooooooooooo ............ oooooooooooo ............ oooooooooooo ..........          ",
"               oooooooooooo ............ oooooooooooo ............ oooooooooooo ..........          ",
"               oooooooooooo ............ oooooooooooo ............ oooooooooooo ..........          ",
"               oooooooooooo ............ oooooooooooo ............ oooooooooooo ..........          ",
"               oooooooooooo ............ oooooooooooo ............ oooooooooooo ..........          ",
"               oooooooooooo ............ oooooooooooo ............ oooooooooooo ..........          ",
"               oooooooooooo ............ oooooooooooo ............ oooooooooooo ..........          ",
"               oooooooooooo ............ oooooooooooo ............ oooooooooooo ..........          ",
"               oooooooooooo ............ oooooooooooo ............ oooooooooooo ..........          ",
"               oooooooooooo ............ oooooooooooo ............ oooooooooooo ..........          ",
"               oooooooooooo ............ oooooooooooo ............ oooooooooooo ..........          ",
"               oooooooooooo ............ oooooooooooo ............ oooooooooooo ..........          ",
"               oooooooooooo ............ oooooooooooo ............ oooooooooooo ..........          ",
"               oooooooooooo ............ oooooooooooo ............ oooooooooooo ..........          ",
"               oooooooooooo ............ oooooooooooo ............ oooooooooooo ..........          ",
"               oooooooooooo ............ oooooooooooo ............ oooooooooooo ..........          ",
"               oooooooooooo ............ oooooooooooo ............ oooooooooooo ..........          ",
"               oooooooooooo ............ oooooooooooo ............ oooooooooooo ..........          ",
"               oooooooooooo ............ oooooooooooo ............ oooooooooooo ..........          ",
"               oooooooooooo ............ oooooooooooo ............ oooooooooooo ..........          ",
"                                                                                                    "
};
